<svg xmlns="http://www.w3.org/2000/svg" xmlns:xlink="http://www.w3.org/1999/xlink" width="97.266" height="137.231" viewBox="0 0 97.266 137.231">
  <defs>
    <clipPath id="clip-path">
      <path id="Path_35" data-name="Path 35" d="M376.321,739.693V713.3a30.2,30.2,0,1,1,60.407,0v26.4Z" transform="translate(-376.321 -683.093)" fill="none"/>
    </clipPath>
  </defs>
  <g id="Group_69" data-name="Group 69" transform="translate(-276.179 -587.388)">
    <g id="Group_2" data-name="Group 2" transform="translate(276.179 587.388)">
      <path id="Path_2" data-name="Path 2" d="M369.615,617.085a48.633,48.633,0,0,0-93.436,18.936v39.965a48.633,48.633,0,1,0,97.266,0V636.021A48.344,48.344,0,0,0,369.615,617.085Z" transform="translate(-276.179 -587.388)" fill="#ff335a"/>
    </g>
    <g id="Group_3" data-name="Group 3" transform="translate(293.186 603.627)">
      <path id="Path_3" data-name="Path 3" d="M403.155,679.224a30.964,30.964,0,0,0-30.964,30.964v38.886a30.964,30.964,0,0,0,61.927,0V710.188A30.964,30.964,0,0,0,403.155,679.224Z" transform="translate(-371.529 -678.562)" fill="#001d51"/>
      <path id="Path_4" data-name="Path 4" d="M400.22,777.765A31.661,31.661,0,0,1,368.6,746.139V707.253a31.625,31.625,0,0,1,63.251,0v38.886A31.661,31.661,0,0,1,400.22,777.765Zm0-100.813a30.336,30.336,0,0,0-30.3,30.3v38.886a30.3,30.3,0,1,0,60.6,0V707.253A30.336,30.336,0,0,0,400.22,676.952Z" transform="translate(-368.595 -675.628)"/>
    </g>
    <g id="Group_36" data-name="Group 36" transform="translate(294.608 605.001)">
      <g id="Group_35" data-name="Group 35" transform="translate(0 0)" clip-path="url(#clip-path)">
        <g id="Group_34" data-name="Group 34" transform="translate(-0.074 -2.104)">
          <g id="Group_4" data-name="Group 4" transform="translate(0 27.028)">
            <path id="Path_5" data-name="Path 5" d="M375.921,828.457l1.866-.673,1.872-.655,3.745-1.309,7.516-2.536,1.879-.634,1.884-.619,3.768-1.234,3.775-1.215,1.888-.606c.318-.1.613-.207.985-.3a5.181,5.181,0,0,1,2.188-.057,5.031,5.031,0,0,1,.535.13c.091.027.172.053.249.078l.236.076,1.886.611,3.771,1.226c2.509.835,5.024,1.646,7.524,2.507L429,825.8l3.742,1.318,1.87.66,1.865.678-.018.057-15.109-4.827-7.555-2.414-3.777-1.207-1.889-.6a7.014,7.014,0,0,0-.948-.262,4.638,4.638,0,0,0-.974-.075,4.739,4.739,0,0,0-.969.126c-.315.077-.629.189-.945.286l-1.89.6-3.781,1.2-7.561,2.394-15.122,4.787Z" transform="translate(-375.921 -818.528)" fill="#294baa"/>
          </g>
          <g id="Group_5" data-name="Group 5" transform="translate(0 55.987)">
            <path id="Path_6" data-name="Path 6" d="M375.921,985.815l1.866-.673,1.872-.655,3.745-1.309,7.516-2.536,1.879-.633,1.884-.619,3.768-1.234,3.775-1.215,1.888-.606c.318-.1.613-.207.985-.3a5.181,5.181,0,0,1,2.188-.056,4.985,4.985,0,0,1,.535.129c.091.027.172.053.249.078l.236.076,1.886.611,3.771,1.226c2.509.835,5.024,1.646,7.524,2.507L429,983.159l3.742,1.318,1.87.66,1.865.678-.018.057-15.109-4.827-7.555-2.414-3.777-1.207-1.889-.6a7,7,0,0,0-.948-.262,4.65,4.65,0,0,0-.974-.075,4.722,4.722,0,0,0-.969.126c-.315.077-.629.189-.945.285l-1.89.6-3.781,1.2-7.561,2.394-15.122,4.787Z" transform="translate(-375.921 -975.887)" fill="#294baa"/>
          </g>
          <g id="Group_6" data-name="Group 6" transform="translate(0 54.057)">
            <path id="Path_7" data-name="Path 7" d="M375.921,975.325l1.866-.673L379.66,974l3.745-1.309,7.516-2.536,1.879-.633,1.884-.619,3.768-1.234,3.775-1.215,1.888-.606c.318-.1.613-.207.985-.3a5.181,5.181,0,0,1,2.188-.057,5.09,5.09,0,0,1,.535.129c.091.027.172.053.249.078l.236.076,1.886.611,3.771,1.226c2.509.835,5.024,1.646,7.524,2.507L429,972.669l3.742,1.318,1.87.66,1.865.678-.018.057-15.109-4.827-7.555-2.414-3.777-1.207-1.889-.6a7,7,0,0,0-.948-.262,4.654,4.654,0,0,0-.974-.075,4.748,4.748,0,0,0-.969.126c-.315.077-.629.189-.945.286l-1.89.6-3.781,1.2-7.561,2.394-15.122,4.787Z" transform="translate(-375.921 -965.396)" fill="#294baa"/>
          </g>
          <g id="Group_7" data-name="Group 7" transform="translate(0 50.196)">
            <path id="Path_8" data-name="Path 8" d="M375.921,954.344l1.866-.673,1.872-.655,3.745-1.309,7.516-2.536,1.879-.634,1.884-.618,3.768-1.235,3.775-1.215,1.888-.606c.318-.1.613-.207.985-.3a5.181,5.181,0,0,1,2.188-.056,5.089,5.089,0,0,1,.535.129c.091.027.172.053.249.078l.236.076,1.886.611,3.771,1.226c2.509.835,5.024,1.646,7.524,2.507L429,951.688l3.742,1.318,1.87.66,1.865.678-.018.057-15.109-4.827-7.555-2.414-3.777-1.207-1.889-.6a7,7,0,0,0-.948-.262,4.646,4.646,0,0,0-.974-.075,4.714,4.714,0,0,0-.969.126c-.315.077-.629.189-.945.285l-1.89.6-3.781,1.2-7.561,2.394L375.939,954.4Z" transform="translate(-375.921 -944.415)" fill="#294baa"/>
          </g>
          <g id="Group_8" data-name="Group 8" transform="translate(0 46.334)">
            <path id="Path_9" data-name="Path 9" d="M375.921,933.363l1.866-.673,1.872-.655,3.745-1.309,7.516-2.536,1.879-.633,1.884-.619,3.768-1.235,3.775-1.215,1.888-.606c.318-.1.613-.207.985-.3a5.184,5.184,0,0,1,2.188-.056,5.09,5.09,0,0,1,.535.129c.091.027.172.053.249.078l.236.076,1.886.611,3.771,1.226c2.509.835,5.024,1.646,7.524,2.507L429,930.707l3.742,1.318,1.87.66,1.865.678-.018.057-15.109-4.827-7.555-2.414-3.777-1.207-1.889-.6a7,7,0,0,0-.948-.262,4.646,4.646,0,0,0-.974-.075,4.731,4.731,0,0,0-.969.126c-.315.077-.629.189-.945.285l-1.89.6-3.781,1.2-7.561,2.394-15.122,4.787Z" transform="translate(-375.921 -923.434)" fill="#294baa"/>
          </g>
          <g id="Group_9" data-name="Group 9" transform="translate(0 42.473)">
            <path id="Path_10" data-name="Path 10" d="M375.921,912.382l1.866-.673,1.872-.655,3.745-1.309,7.516-2.536,1.879-.633,1.884-.619,3.768-1.235,3.775-1.215,1.888-.606c.318-.1.613-.207.985-.3a5.183,5.183,0,0,1,2.188-.056,5.06,5.06,0,0,1,.535.129c.091.027.172.053.249.078l.236.076,1.886.611,3.771,1.226c2.509.835,5.024,1.646,7.524,2.507L429,909.726l3.742,1.318,1.87.66,1.865.678-.018.057-15.109-4.827-7.555-2.413-3.777-1.207-1.889-.6a6.977,6.977,0,0,0-.948-.262,4.65,4.65,0,0,0-.974-.075,4.722,4.722,0,0,0-.969.126c-.315.077-.629.189-.945.285l-1.89.6-3.781,1.2-7.561,2.394-15.122,4.787Z" transform="translate(-375.921 -902.453)" fill="#294baa"/>
          </g>
          <g id="Group_10" data-name="Group 10" transform="translate(0 38.612)">
            <path id="Path_11" data-name="Path 11" d="M375.921,891.4l1.866-.673,1.872-.655,3.745-1.309,7.516-2.535,1.879-.633,1.884-.619,3.768-1.234,3.775-1.215,1.888-.606c.318-.1.613-.207.985-.3a5.184,5.184,0,0,1,2.188-.056,4.985,4.985,0,0,1,.535.129c.091.027.172.053.249.078l.236.076,1.886.611,3.771,1.226c2.509.835,5.024,1.646,7.524,2.507L429,888.745l3.742,1.318,1.87.66,1.865.678-.018.057-15.109-4.827-7.555-2.414-3.777-1.207-1.889-.6a7,7,0,0,0-.948-.262,4.634,4.634,0,0,0-.974-.075,4.739,4.739,0,0,0-.969.126c-.315.078-.629.189-.945.286l-1.89.6-3.781,1.2-7.561,2.394-15.122,4.787Z" transform="translate(-375.921 -881.472)" fill="#294baa"/>
          </g>
          <g id="Group_11" data-name="Group 11" transform="translate(0 34.751)">
            <path id="Path_12" data-name="Path 12" d="M375.921,870.419l1.866-.673,1.872-.655,3.745-1.309,7.516-2.535,1.879-.633,1.884-.619,3.768-1.234,3.775-1.215,1.888-.606c.318-.1.613-.207.985-.3a5.176,5.176,0,0,1,2.188-.056,5,5,0,0,1,.535.129c.091.027.172.053.249.078l.236.076,1.886.611,3.771,1.226c2.509.835,5.024,1.646,7.524,2.507L429,867.763l3.742,1.318,1.87.66,1.865.678-.018.057-15.109-4.827-7.555-2.414-3.777-1.207-1.889-.6a7,7,0,0,0-.948-.262,4.638,4.638,0,0,0-.974-.075,4.739,4.739,0,0,0-.969.126c-.315.077-.629.189-.945.286l-1.89.6-3.781,1.2-7.561,2.394-15.122,4.787Z" transform="translate(-375.921 -860.49)" fill="#294baa"/>
          </g>
          <g id="Group_12" data-name="Group 12" transform="translate(0 30.89)">
            <path id="Path_13" data-name="Path 13" d="M375.921,849.438l1.866-.673,1.872-.655L383.4,846.8l7.516-2.535,1.879-.633,1.884-.619,3.768-1.234,3.775-1.215,1.888-.606c.318-.1.613-.207.985-.3a5.176,5.176,0,0,1,2.188-.057,5.06,5.06,0,0,1,.535.13c.091.027.172.053.249.078l.236.076,1.886.611,3.771,1.226c2.509.835,5.024,1.646,7.524,2.507L429,846.782l3.742,1.318,1.87.66,1.865.677-.018.057-15.109-4.827-7.555-2.414-3.777-1.207-1.889-.6a7,7,0,0,0-.948-.261,4.63,4.63,0,0,0-.974-.075,4.73,4.73,0,0,0-.969.126c-.315.077-.629.189-.945.286l-1.89.6-3.781,1.2-7.561,2.394-15.122,4.787Z" transform="translate(-375.921 -839.509)" fill="#294baa"/>
          </g>
          <g id="Group_13" data-name="Group 13" transform="translate(0 23.167)">
            <path id="Path_14" data-name="Path 14" d="M375.921,807.475l1.866-.673,1.872-.655,3.745-1.309,7.516-2.536,1.879-.633,1.884-.619,3.768-1.234,3.775-1.215,1.888-.606c.318-.1.613-.207.985-.3a5.181,5.181,0,0,1,2.188-.057,5.09,5.09,0,0,1,.535.129c.091.027.172.053.249.078l.236.076,1.886.611,3.771,1.226c2.509.835,5.024,1.646,7.524,2.507L429,804.82l3.742,1.318,1.87.66,1.865.677-.018.057-15.109-4.827-7.555-2.414-3.777-1.207-1.889-.6a7,7,0,0,0-.948-.262,4.646,4.646,0,0,0-.974-.075,4.731,4.731,0,0,0-.969.126c-.315.077-.629.189-.945.286l-1.89.6-3.781,1.2-7.561,2.394-15.122,4.787Z" transform="translate(-375.921 -797.547)" fill="#294baa"/>
          </g>
          <g id="Group_14" data-name="Group 14" transform="translate(0 19.306)">
            <path id="Path_15" data-name="Path 15" d="M375.921,786.495l1.866-.673,1.872-.655,3.745-1.309,7.516-2.536,1.879-.633,1.884-.619,3.768-1.234,3.775-1.215,1.888-.606c.318-.1.613-.207.985-.3a5.181,5.181,0,0,1,2.188-.056,5.059,5.059,0,0,1,.535.129c.091.027.172.053.249.078l.236.076,1.886.611,3.771,1.226c2.509.835,5.024,1.646,7.524,2.507L429,783.839l3.742,1.318,1.87.66,1.865.678-.018.057-15.109-4.827-7.555-2.414-3.777-1.207-1.889-.6a7,7,0,0,0-.948-.262,4.654,4.654,0,0,0-.974-.075,4.731,4.731,0,0,0-.969.126c-.315.077-.629.189-.945.285l-1.89.6-3.781,1.2-7.561,2.394-15.122,4.787Z" transform="translate(-375.921 -776.566)" fill="#294baa"/>
          </g>
          <g id="Group_15" data-name="Group 15" transform="translate(0 15.445)">
            <path id="Path_16" data-name="Path 16" d="M375.921,765.514l1.866-.673,1.872-.655,3.745-1.309,7.516-2.536,1.879-.633,1.884-.619,3.768-1.235,3.775-1.215,1.888-.606c.318-.1.613-.207.985-.3a5.183,5.183,0,0,1,2.188-.056,5.06,5.06,0,0,1,.535.129c.091.027.172.053.249.078l.236.076,1.886.611,3.771,1.226c2.509.835,5.024,1.646,7.524,2.507L429,762.858l3.742,1.318,1.87.66,1.865.678-.018.057-15.109-4.827-7.555-2.414-3.777-1.207-1.889-.6a6.987,6.987,0,0,0-.948-.262,4.65,4.65,0,0,0-.974-.075,4.726,4.726,0,0,0-.969.126c-.315.077-.629.189-.945.285l-1.89.6-3.781,1.2-7.561,2.394-15.122,4.787Z" transform="translate(-375.921 -755.585)" fill="#294baa"/>
          </g>
          <g id="Group_16" data-name="Group 16" transform="translate(0 11.584)">
            <path id="Path_17" data-name="Path 17" d="M375.921,744.532l1.866-.673,1.872-.655,3.745-1.309,7.516-2.536,1.879-.633,1.884-.619,3.768-1.235,3.775-1.215,1.888-.606c.318-.1.613-.207.985-.3a5.183,5.183,0,0,1,2.188-.056,5.09,5.09,0,0,1,.535.129c.091.027.172.053.249.078l.236.076,1.886.611,3.771,1.226c2.509.835,5.024,1.646,7.524,2.507L429,741.877l3.742,1.318,1.87.66,1.865.678-.018.057-15.109-4.827-7.555-2.413-3.777-1.207-1.889-.6a6.986,6.986,0,0,0-.948-.262,4.646,4.646,0,0,0-.974-.075,4.726,4.726,0,0,0-.969.126c-.315.077-.629.189-.945.285l-1.89.6-3.781,1.2-7.561,2.394-15.122,4.787Z" transform="translate(-375.921 -734.604)" fill="#294baa"/>
          </g>
          <g id="Group_17" data-name="Group 17" transform="translate(0 7.723)">
            <path id="Path_18" data-name="Path 18" d="M375.921,723.551l1.866-.673,1.872-.655,3.745-1.309,7.516-2.535,1.879-.633,1.884-.619,3.768-1.234,3.775-1.215,1.888-.606c.318-.1.613-.207.985-.3a5.181,5.181,0,0,1,2.188-.056,5,5,0,0,1,.535.129c.091.027.172.053.249.078l.236.076,1.886.611,3.771,1.226c2.509.835,5.024,1.646,7.524,2.507L429,720.9l3.742,1.318,1.87.66,1.865.678-.018.057-15.109-4.827-7.555-2.414-3.777-1.207-1.889-.6a6.986,6.986,0,0,0-.948-.261,4.634,4.634,0,0,0-.974-.075,4.735,4.735,0,0,0-.969.126c-.315.077-.629.189-.945.286l-1.89.6-3.781,1.2-7.561,2.394-15.122,4.787Z" transform="translate(-375.921 -713.623)" fill="#294baa"/>
          </g>
          <g id="Group_18" data-name="Group 18" transform="translate(0 3.861)">
            <path id="Path_19" data-name="Path 19" d="M375.921,702.57l1.866-.673,1.872-.655,3.745-1.309,7.516-2.535,1.879-.633,1.884-.619,3.768-1.234,3.775-1.215,1.888-.606c.318-.1.613-.207.985-.3a5.175,5.175,0,0,1,2.188-.056,4.985,4.985,0,0,1,.535.129c.091.027.172.053.249.078l.236.076,1.886.611,3.771,1.226c2.509.835,5.024,1.646,7.524,2.507L429,699.914l3.742,1.318,1.87.66,1.865.677-.018.057L421.348,697.8l-7.555-2.414-3.777-1.207-1.889-.6a6.986,6.986,0,0,0-.948-.261,4.638,4.638,0,0,0-.974-.075,4.739,4.739,0,0,0-.969.126c-.315.077-.629.189-.945.286l-1.89.6-3.781,1.2-7.561,2.394-15.122,4.787Z" transform="translate(-375.921 -692.642)" fill="#294baa"/>
          </g>
          <g id="Group_19" data-name="Group 19" transform="translate(0 21.237)">
            <path id="Path_20" data-name="Path 20" d="M375.921,796.985l1.866-.673,1.872-.655,3.745-1.309,7.516-2.535,1.879-.633,1.884-.619,3.768-1.234,3.775-1.215,1.888-.606c.318-.1.613-.207.985-.3a5.175,5.175,0,0,1,2.188-.056,5,5,0,0,1,.535.129c.091.027.172.053.249.078l.236.076,1.886.611,3.771,1.226c2.509.835,5.024,1.646,7.524,2.507L429,794.329l3.742,1.318,1.87.66,1.865.678-.018.057-15.109-4.827-7.555-2.414-3.777-1.207-1.889-.6a6.977,6.977,0,0,0-.948-.262,4.634,4.634,0,0,0-.974-.075,4.735,4.735,0,0,0-.969.126c-.315.077-.629.189-.945.286l-1.89.6-3.781,1.2-7.561,2.394-15.122,4.787Z" transform="translate(-375.921 -787.056)" fill="#294baa"/>
          </g>
          <g id="Group_20" data-name="Group 20" transform="translate(0 52.126)">
            <path id="Path_21" data-name="Path 21" d="M375.921,964.834l1.866-.673,1.872-.655L383.4,962.2l7.516-2.535,1.879-.633,1.884-.619,3.768-1.235,3.775-1.215,1.888-.606c.318-.1.613-.207.985-.3a5.175,5.175,0,0,1,2.188-.056,5,5,0,0,1,.535.129c.091.027.172.053.249.078l.236.076,1.886.611,3.771,1.226c2.509.835,5.024,1.646,7.524,2.507L429,962.178l3.742,1.318,1.87.66,1.865.678-.018.057-15.109-4.827-7.555-2.414-3.777-1.207-1.889-.6a6.986,6.986,0,0,0-.948-.261,4.638,4.638,0,0,0-.974-.075,4.739,4.739,0,0,0-.969.126c-.315.077-.629.189-.945.286l-1.89.6-3.781,1.2-7.561,2.394-15.122,4.787Z" transform="translate(-375.921 -954.905)" fill="#294baa"/>
          </g>
          <g id="Group_21" data-name="Group 21" transform="translate(0 48.265)">
            <path id="Path_22" data-name="Path 22" d="M375.921,943.853l1.866-.673,1.872-.655,3.745-1.309,7.516-2.535,1.879-.633,1.884-.619,3.768-1.234,3.775-1.215,1.888-.606c.318-.1.613-.207.985-.3a5.179,5.179,0,0,1,2.188-.057,5.045,5.045,0,0,1,.535.13c.091.027.172.053.249.078l.236.076,1.886.611,3.771,1.226c2.509.835,5.024,1.646,7.524,2.507L429,941.2l3.742,1.318,1.87.66,1.865.678-.018.057-15.109-4.827-7.555-2.414-3.777-1.207-1.889-.6a6.986,6.986,0,0,0-.948-.262,4.634,4.634,0,0,0-.974-.075,4.735,4.735,0,0,0-.969.126c-.315.077-.629.189-.945.286l-1.89.6-3.781,1.2-7.561,2.394-15.122,4.787Z" transform="translate(-375.921 -933.924)" fill="#294baa"/>
          </g>
          <g id="Group_22" data-name="Group 22" transform="translate(0 44.404)">
            <path id="Path_23" data-name="Path 23" d="M375.921,922.872l1.866-.673,1.872-.655,3.745-1.309,7.516-2.536,1.879-.633,1.884-.619,3.768-1.234L402.226,914l1.888-.606c.318-.1.613-.207.985-.3a5.177,5.177,0,0,1,2.188-.056,5.03,5.03,0,0,1,.535.13c.091.027.172.053.249.078l.236.076,1.886.611,3.771,1.226c2.509.835,5.024,1.646,7.524,2.507L429,920.216l3.742,1.318,1.87.66,1.865.678-.018.057L421.348,918.1l-7.555-2.414-3.777-1.207-1.889-.6a7,7,0,0,0-.948-.262,4.622,4.622,0,0,0-.974-.075,4.739,4.739,0,0,0-.969.126c-.315.077-.629.189-.945.286l-1.89.6-3.781,1.2-7.561,2.394-15.122,4.787Z" transform="translate(-375.921 -912.943)" fill="#294baa"/>
          </g>
          <g id="Group_23" data-name="Group 23" transform="translate(0 40.543)">
            <path id="Path_24" data-name="Path 24" d="M375.921,901.891l1.866-.673,1.872-.655,3.745-1.309,7.516-2.536,1.879-.633,1.884-.619,3.768-1.234,3.775-1.215,1.888-.606c.318-.1.613-.207.985-.3a5.179,5.179,0,0,1,2.188-.057,5.09,5.09,0,0,1,.535.129c.091.027.172.053.249.078l.236.076,1.886.611,3.771,1.226c2.509.835,5.024,1.646,7.524,2.507L429,899.235l3.742,1.318,1.87.66,1.865.678-.018.057-15.109-4.827-7.555-2.414-3.777-1.207-1.889-.6a6.978,6.978,0,0,0-.948-.262,4.634,4.634,0,0,0-.974-.075,4.722,4.722,0,0,0-.969.126c-.315.077-.629.189-.945.286l-1.89.6-3.781,1.2-7.561,2.393-15.122,4.787Z" transform="translate(-375.921 -891.962)" fill="#294baa"/>
          </g>
          <g id="Group_24" data-name="Group 24" transform="translate(0 36.681)">
            <path id="Path_25" data-name="Path 25" d="M375.921,880.909l1.866-.673,1.872-.655,3.745-1.309,7.516-2.536,1.879-.633,1.884-.619,3.768-1.234,3.775-1.215,1.888-.606c.318-.1.613-.207.985-.3a5.177,5.177,0,0,1,2.188-.056,5.06,5.06,0,0,1,.535.129c.091.027.172.053.249.078l.236.076,1.886.611,3.771,1.226c2.509.835,5.024,1.646,7.524,2.507L429,878.254l3.742,1.318,1.87.66,1.865.678-.018.057-15.109-4.827-7.555-2.414-3.777-1.207-1.889-.6a7,7,0,0,0-.948-.262,4.65,4.65,0,0,0-.974-.075,4.739,4.739,0,0,0-.969.126c-.315.077-.629.189-.945.286l-1.89.6-3.781,1.2-7.561,2.394-15.122,4.787Z" transform="translate(-375.921 -870.981)" fill="#294baa"/>
          </g>
          <g id="Group_25" data-name="Group 25" transform="translate(0 32.82)">
            <path id="Path_26" data-name="Path 26" d="M375.921,859.928l1.866-.673,1.872-.655,3.745-1.309,7.516-2.536,1.879-.633,1.884-.619,3.768-1.235,3.775-1.215,1.888-.606c.318-.1.613-.207.985-.3a5.181,5.181,0,0,1,2.188-.056,5.075,5.075,0,0,1,.535.129c.091.027.172.053.249.078l.236.076,1.886.611,3.771,1.226c2.509.835,5.024,1.646,7.524,2.507L429,857.273l3.742,1.318,1.87.66,1.865.678-.018.057-15.109-4.827-7.555-2.414-3.777-1.207-1.889-.6a6.978,6.978,0,0,0-.948-.262,4.646,4.646,0,0,0-.974-.075,4.726,4.726,0,0,0-.969.126c-.315.077-.629.189-.945.285l-1.89.6-3.781,1.2-7.561,2.394-15.122,4.787Z" transform="translate(-375.921 -850)" fill="#294baa"/>
          </g>
          <g id="Group_26" data-name="Group 26" transform="translate(0 28.959)">
            <path id="Path_27" data-name="Path 27" d="M375.921,838.948l1.866-.673,1.872-.655,3.745-1.309,7.516-2.536,1.879-.633,1.884-.619,3.768-1.235,3.775-1.215,1.888-.606c.318-.1.613-.207.985-.3a5.183,5.183,0,0,1,2.188-.056,5.075,5.075,0,0,1,.535.129c.091.027.172.053.249.078l.236.076,1.886.611,3.771,1.226c2.509.835,5.024,1.646,7.524,2.507L429,836.292l3.742,1.318,1.87.66,1.865.678-.018.057-15.109-4.827-7.555-2.414-3.777-1.207-1.889-.6a6.986,6.986,0,0,0-.948-.262,4.65,4.65,0,0,0-.974-.075,4.722,4.722,0,0,0-.969.126c-.315.077-.629.189-.945.285l-1.89.6-3.781,1.2-7.561,2.394L375.939,839Z" transform="translate(-375.921 -829.019)" fill="#294baa"/>
          </g>
          <g id="Group_27" data-name="Group 27" transform="translate(0 25.098)">
            <path id="Path_28" data-name="Path 28" d="M375.921,817.966l1.866-.673,1.872-.655,3.745-1.309,7.516-2.536,1.879-.633,1.884-.619,3.768-1.235,3.775-1.215,1.888-.606c.318-.1.613-.207.985-.3a5.181,5.181,0,0,1,2.188-.056,5,5,0,0,1,.535.129c.091.027.172.053.249.078l.236.076,1.886.611,3.771,1.226c2.509.835,5.024,1.646,7.524,2.507L429,815.31l3.742,1.318,1.87.66,1.865.678-.018.057L421.348,813.2l-7.555-2.413-3.777-1.207-1.889-.6a7,7,0,0,0-.948-.261,4.646,4.646,0,0,0-.974-.075,4.722,4.722,0,0,0-.969.126c-.315.077-.629.189-.945.285l-1.89.6-3.781,1.2-7.561,2.394-15.122,4.787Z" transform="translate(-375.921 -808.038)" fill="#294baa"/>
          </g>
          <g id="Group_28" data-name="Group 28" transform="translate(0 17.375)">
            <path id="Path_29" data-name="Path 29" d="M375.921,776l1.866-.673,1.872-.655,3.745-1.309,7.516-2.535,1.879-.633,1.884-.619,3.768-1.234,3.775-1.215,1.888-.606c.318-.1.613-.207.985-.3a5.173,5.173,0,0,1,2.188-.056,5,5,0,0,1,.535.129c.091.027.172.053.249.078l.236.076,1.886.611,3.771,1.226c2.509.835,5.024,1.646,7.524,2.507L429,773.348l3.742,1.318,1.87.66,1.865.678-.018.057-15.109-4.827-7.555-2.414-3.777-1.207-1.889-.6a6.986,6.986,0,0,0-.948-.262,4.634,4.634,0,0,0-.974-.075,4.735,4.735,0,0,0-.969.126c-.315.077-.629.189-.945.286l-1.89.6-3.781,1.2-7.561,2.394-15.122,4.787Z" transform="translate(-375.921 -766.075)" fill="#294baa"/>
          </g>
          <g id="Group_29" data-name="Group 29" transform="translate(0 13.514)">
            <path id="Path_30" data-name="Path 30" d="M375.921,755.023l1.866-.673,1.872-.655,3.745-1.309,7.516-2.536,1.879-.633,1.884-.619,3.768-1.234,3.775-1.215,1.888-.606c.318-.1.613-.207.985-.3a5.177,5.177,0,0,1,2.188-.056,5.031,5.031,0,0,1,.535.13c.091.027.172.053.249.078l.236.076,1.886.611,3.771,1.226c2.509.835,5.024,1.646,7.524,2.507L429,752.367l3.742,1.318,1.87.66,1.865.678-.018.057-15.109-4.827-7.555-2.414-3.777-1.207-1.889-.6a7,7,0,0,0-.948-.261,4.622,4.622,0,0,0-.974-.075,4.739,4.739,0,0,0-.969.126c-.315.077-.629.189-.945.286l-1.89.6-3.781,1.2-7.561,2.394-15.122,4.787Z" transform="translate(-375.921 -745.094)" fill="#294baa"/>
          </g>
          <g id="Group_30" data-name="Group 30" transform="translate(0 9.653)">
            <path id="Path_31" data-name="Path 31" d="M375.921,734.041l1.866-.673,1.872-.655L383.4,731.4l7.516-2.536,1.879-.633,1.884-.618,3.768-1.234,3.775-1.215,1.888-.606c.318-.1.613-.207.985-.3a5.177,5.177,0,0,1,2.188-.056,5.045,5.045,0,0,1,.535.13c.091.027.172.053.249.078l.236.076,1.886.611,3.771,1.226c2.509.835,5.024,1.646,7.524,2.507L429,731.386l3.742,1.318,1.87.66,1.865.678-.018.057-15.109-4.827-7.555-2.414-3.777-1.207-1.889-.6a6.978,6.978,0,0,0-.948-.262,4.63,4.63,0,0,0-.974-.075,4.726,4.726,0,0,0-.969.126c-.315.077-.629.189-.945.286l-1.89.6-3.781,1.2-7.561,2.393L375.939,734.1Z" transform="translate(-375.921 -724.113)" fill="#294baa"/>
          </g>
          <g id="Group_31" data-name="Group 31" transform="translate(0 5.792)">
            <path id="Path_32" data-name="Path 32" d="M375.921,713.06l1.866-.673,1.872-.655,3.745-1.309,7.516-2.536,1.879-.633,1.884-.619,3.768-1.234,3.775-1.215,1.888-.606c.318-.1.613-.207.985-.3a5.177,5.177,0,0,1,2.188-.056,5.089,5.089,0,0,1,.535.129c.091.027.172.053.249.078l.236.076,1.886.611,3.771,1.226c2.509.835,5.024,1.646,7.524,2.507L429,710.4l3.742,1.318,1.87.66,1.865.678-.018.057-15.109-4.827-7.555-2.414-3.777-1.207-1.889-.6a7,7,0,0,0-.948-.262,4.646,4.646,0,0,0-.974-.075,4.739,4.739,0,0,0-.969.126c-.315.077-.629.189-.945.286l-1.89.6-3.781,1.2-7.561,2.393-15.122,4.787Z" transform="translate(-375.921 -703.132)" fill="#294baa"/>
          </g>
          <g id="Group_32" data-name="Group 32" transform="translate(0 1.931)">
            <path id="Path_33" data-name="Path 33" d="M375.921,692.079l1.866-.673,1.872-.655,3.745-1.309,7.516-2.536,1.879-.633,1.884-.619,3.768-1.235,3.775-1.215,1.888-.606c.318-.1.613-.207.985-.3a5.184,5.184,0,0,1,2.188-.056,5.09,5.09,0,0,1,.535.129c.091.027.172.053.249.078l.236.076,1.886.611,3.771,1.226c2.509.835,5.024,1.646,7.524,2.507L429,689.424l3.742,1.318,1.87.66,1.865.677-.018.057-15.109-4.827-7.555-2.414-3.777-1.207-1.889-.6a7,7,0,0,0-.948-.262,4.654,4.654,0,0,0-.974-.075,4.731,4.731,0,0,0-.969.126c-.315.077-.629.189-.945.285l-1.89.6-3.781,1.2-7.561,2.394-15.122,4.787Z" transform="translate(-375.921 -682.151)" fill="#294baa"/>
          </g>
          <g id="Group_33" data-name="Group 33">
            <path id="Path_34" data-name="Path 34" d="M375.921,681.589l1.866-.673,1.872-.655,3.745-1.309,7.516-2.535,1.879-.633,1.884-.619,3.768-1.234,3.775-1.215,1.888-.606c.318-.1.613-.207.985-.3a5.179,5.179,0,0,1,2.188-.057,5.03,5.03,0,0,1,.535.13c.091.027.172.053.249.078l.236.076,1.886.611,3.771,1.226c2.509.835,5.024,1.646,7.524,2.507L429,678.933l3.742,1.318,1.87.66,1.865.678-.018.057-15.109-4.827-7.555-2.414-3.777-1.207-1.889-.6a6.986,6.986,0,0,0-.948-.261,4.638,4.638,0,0,0-.974-.075,4.739,4.739,0,0,0-.969.126c-.315.077-.629.189-.945.286l-1.89.6-3.781,1.2-7.561,2.394-15.122,4.787Z" transform="translate(-375.921 -671.661)" fill="#294baa"/>
          </g>
        </g>
      </g>
    </g>
    <g id="Group_37" data-name="Group 37" transform="translate(314.954 614.484)">
      <path id="Path_36" data-name="Path 36" d="M489.958,752.555v-5.56a9.291,9.291,0,1,1,18.581,0v5.56Z" transform="translate(-489.391 -737.137)" fill="#ffb41d"/>
      <path id="Path_37" data-name="Path 37" d="M506.591,750.607H486.875V744.48a9.858,9.858,0,0,1,19.716,0Zm-18.581-1.135h17.447V744.48a8.723,8.723,0,0,0-17.447,0Z" transform="translate(-486.875 -734.622)"/>
    </g>
    <g id="Group_38" data-name="Group 38" transform="translate(284.754 685.931)">
      <path id="Path_38" data-name="Path 38" d="M328.417,1122.854l.778,2.473a1.706,1.706,0,0,1-1.216,2.384,1.856,1.856,0,0,1-1.907-.347l-1.437,1.595-.451.142-.424-1.345,1.7-1.809-.183-.58-2.062.649-.436-1.386Zm-1.728,3.006c.14.443.367.6.826.457s.538-.4.4-.843l-.269-.854-1.225.385Z" transform="translate(-322.777 -1122.854)" fill="#fff"/>
      <path id="Path_39" data-name="Path 39" d="M339.752,1158.083l1.665-.862a2.413,2.413,0,0,1,2.206,4.26l-1.665.862a2.415,2.415,0,0,1-2.206-4.26Zm3.271,2.073c.338-.175.516-.619.225-1.182s-.757-.673-1.095-.5l-1.778.921c-.352.182-.524.623-.233,1.186s.75.677,1.1.494Z" transform="translate(-335.688 -1150.674)" fill="#fff"/>
      <path id="Path_40" data-name="Path 40" d="M358.3,1187.929l.878,1.158c-.431.327-.254.839.078,1.277.3.4.576.507.824.318.2-.148.143-.384-.075-1.035l-.326-.961a1.628,1.628,0,0,1,.51-2c.909-.689,2.013-.435,2.851.669a1.991,1.991,0,0,1-.247,3.029l-.883-1.165c.357-.27.332-.708.026-1.112-.27-.357-.556-.468-.792-.29-.209.158-.184.33-.035.779l.311.941c.328.992.386,1.669-.4,2.261-.909.689-1.974.5-2.9-.718C357.3,1189.992,357.241,1188.73,358.3,1187.929Z" transform="translate(-351.113 -1174.628)" fill="#fff"/>
      <path id="Path_41" data-name="Path 41" d="M385.2,1208.338l-1.143-1.1.879-.912,3.327,3.206-.879.912-1.137-1.1-3.223,3.345-1.046-1.008Z" transform="translate(-371.084 -1190.963)" fill="#fff"/>
      <path id="Path_42" data-name="Path 42" d="M406.117,1227.742l2.129,1.48a1.707,1.707,0,0,1,.5,2.63,1.856,1.856,0,0,1-1.721.892l-.161,2.141-.27.388-1.158-.805.236-2.47-.5-.347-1.234,1.776-1.193-.829Zm.472,3.435c.382.265.659.252.933-.143s.181-.646-.2-.911l-.735-.511-.733,1.055Z" transform="translate(-388.026 -1208.439)" fill="#fff"/>
      <path id="Path_43" data-name="Path 43" d="M439.912,1245.772l1.319.609-1.689,3.658c-.145.314-.03.73.522.985s.943.073,1.089-.242l1.689-3.658,1.319.609-1.668,3.612a2.359,2.359,0,0,1-4.249-1.962Z" transform="translate(-416.817 -1223.151)" fill="#fff"/>
      <path id="Path_44" data-name="Path 44" d="M473.285,1259.578l1.369.339.728,2.643,1.879-2,1.353.335-1.423,5.738-1.369-.34.8-3.238-1.243,1.328-.869-.216-.478-1.754-.8,3.238-1.369-.34Z" transform="translate(-444.426 -1234.416)" fill="#fff"/>
      <path id="Path_45" data-name="Path 45" d="M530.988,1268.759l3.953-.016.005,1.267-2.5.01,0,1.081,2.112-.008,0,1.2-2.112.008,0,1.1,2.517-.01.005,1.267-3.97.016Z" transform="translate(-492.671 -1241.895)" fill="#fff"/>
      <path id="Path_46" data-name="Path 46" d="M560.809,1266.244l2.157-.364c1.474-.249,2.488.325,2.7,1.591l.312,1.849c.215,1.274-.538,2.138-2.029,2.39l-2.157.364Zm2.931,4.217c.6-.1.875-.5.813-.865l-.323-1.916c-.063-.375-.453-.652-1.052-.55l-.725.122.563,3.332Z" transform="translate(-517.004 -1239.512)" fill="#fff"/>
      <path id="Path_47" data-name="Path 47" d="M593.152,1254.92l1.368-.49,1.358,3.793c.117.326.49.542,1.063.337s.724-.609.607-.935l-1.358-3.793,1.368-.49,1.341,3.746a2.359,2.359,0,0,1-4.406,1.578Z" transform="translate(-543.394 -1229.328)" fill="#fff"/>
      <path id="Path_48" data-name="Path 48" d="M629.257,1246.1l-.939-1.662c-.665-1.177-.326-2.261,1-3.009a2,2,0,0,1,2.976.734l.042.073-1.265.715-.041-.073a.746.746,0,0,0-1.136-.241c-.463.262-.586.594-.358,1l1.035,1.831c.229.4.58.478,1.044.216.507-.287.629-.656.375-1.1l-.037-.066,1.265-.715.041.073a1.992,1.992,0,0,1-.907,2.928C631.025,1247.542,629.922,1247.273,629.257,1246.1Z" transform="translate(-571.818 -1219.303)" fill="#fff"/>
      <path id="Path_49" data-name="Path 49" d="M662.634,1226.978l-1.455,1.182.476,1.257-1,.809-.3-.367-1.907-5.458,1.108-.9,4.956,2.982.3.367-1.056.857Zm-1.907-.018.826-.671-1.423-.922Z" transform="translate(-596.677 -1204.979)" fill="#fff"/>
      <path id="Path_50" data-name="Path 50" d="M675.589,1200.377l-1.075,1.17-.933-.858,3.127-3.4.933.858-1.069,1.163,3.421,3.144-.983,1.07Z" transform="translate(-609.022 -1183.589)" fill="#fff"/>
      <path id="Path_51" data-name="Path 51" d="M694.486,1186.428l.847-1.181,4.806,3.446-.847,1.181Z" transform="translate(-626.08 -1173.765)" fill="#fff"/>
      <path id="Path_52" data-name="Path 52" d="M710.621,1163.95l-1.658-.876a2.413,2.413,0,0,1,2.243-4.241l1.658.877a2.415,2.415,0,0,1-2.243,4.241Zm-.161-3.869c-.336-.178-.8-.071-1.1.489s-.121,1.006.215,1.183l1.77.936c.351.186.81.075,1.107-.485s.129-1-.222-1.188Z" transform="translate(-636.954 -1151.983)" fill="#fff"/>
      <path id="Path_53" data-name="Path 53" d="M719.775,1127.333l.406-1.271,3.638-.869-3.049-.974.429-1.344,5.632,1.8-.4,1.263-3.64.876,3.049.974-.429,1.344Z" transform="translate(-646.715 -1122.872)" fill="#fff"/>
    </g>
    <g id="Group_42" data-name="Group 42" transform="translate(361.823 665.887)">
      <g id="Group_39" data-name="Group 39" transform="translate(2.078 0)">
        <rect id="Rectangle_15" data-name="Rectangle 15" width="1.324" height="11.228"/>
      </g>
      <g id="Group_41" data-name="Group 41" transform="translate(0 8.388)">
        <g id="Group_40" data-name="Group 40" transform="translate(0 0)">
          <circle id="Ellipse_1" data-name="Ellipse 1" cx="1.991" cy="1.991" r="1.991" transform="translate(0 3.387) rotate(-58.283)"/>
        </g>
      </g>
    </g>
    <g id="Group_43" data-name="Group 43" transform="translate(304.264 671.758)">
      <path id="Path_54" data-name="Path 54" d="M432.56,1056.045l19.3,6.608a1.433,1.433,0,0,0,.831,0l19.3-6.608a.246.246,0,0,0,0-.47l-19.712-5.973-19.712,5.973A.246.246,0,0,0,432.56,1056.045Z" transform="translate(-431.724 -1048.911)"/>
      <path id="Path_55" data-name="Path 55" d="M449.337,1060.31a2.087,2.087,0,0,1-.608-.09l-.022-.007-19.288-6.605a.907.907,0,0,1,.015-1.732l19.9-6.031,19.9,6.031a.907.907,0,0,1,.015,1.732l-19.311,6.612A2.087,2.087,0,0,1,449.337,1060.31Zm-.214-1.354a.768.768,0,0,0,.428,0l18.07-6.188-18.284-5.541-18.284,5.541Z" transform="translate(-428.789 -1045.844)"/>
    </g>
    <g id="Group_44" data-name="Group 44" transform="translate(278.676 650.203)">
      <path id="Path_56" data-name="Path 56" d="M293.744,947.209l44.124,15.11a3.276,3.276,0,0,0,1.9,0l44.124-15.11a.561.561,0,0,0,0-1.075l-45.075-13.659-45.075,13.659A.561.561,0,0,0,293.744,947.209Z" transform="translate(-292.683 -931.783)" fill="#ffb41d"/>
      <path id="Path_57" data-name="Path 57" d="M335.884,960.056a3.943,3.943,0,0,1-1.143-.17l-.022-.007L290.6,944.772a1.223,1.223,0,0,1,.013-2.337l45.267-13.718,45.267,13.718a1.223,1.223,0,0,1,.013,2.337l-44.138,15.114A3.94,3.94,0,0,1,335.884,960.056Zm-.748-1.433a2.607,2.607,0,0,0,1.5,0l43.836-15.011L335.884,930.1,291.3,943.611Z" transform="translate(-289.749 -928.717)"/>
    </g>
    <g id="Group_45" data-name="Group 45" transform="translate(309.182 634.49)">
      <path id="Path_58" data-name="Path 58" d="M486.957,878.135l-12.88-3.9-12.88,3.9a1.618,1.618,0,0,1-2.085-1.645l2.134-29.564h25.662l2.134,29.564A1.618,1.618,0,0,1,486.957,878.135Z" transform="translate(-458.447 -846.264)"/>
      <path id="Path_59" data-name="Path 59" d="M484.492,875.932a2.269,2.269,0,0,1-.66-.1l-12.688-3.845-12.688,3.845a2.28,2.28,0,0,1-2.937-2.317L457.7,843.33H484.59l2.178,30.178a2.28,2.28,0,0,1-2.276,2.424Zm-.277-1.365a.957.957,0,0,0,1.232-.972l-2.089-28.941H458.927l-2.089,28.95a.957.957,0,0,0,1.233.964l13.072-3.961Z" transform="translate(-455.513 -843.33)"/>
    </g>
    <g id="Group_46" data-name="Group 46" transform="translate(309.31 630.673)">
      <path id="Path_60" data-name="Path 60" d="M490.019,825.673H460.65l1.579,4.229H488.25Z" transform="translate(-459.833 -825.106)" fill="#ffb41d"/>
      <path id="Path_61" data-name="Path 61" d="M485,827.954H458.212l-2-5.363h31.038Zm-26-1.135h25.249l1.294-3.094h-27.7Z" transform="translate(-456.209 -822.591)"/>
    </g>
    <g id="Group_51" data-name="Group 51" transform="translate(320.641 619.127)">
      <g id="Group_47" data-name="Group 47" transform="translate(0.896 6.298)">
        <rect id="Rectangle_16" data-name="Rectangle 16" width="0.768" height="3.559"/>
      </g>
      <g id="Group_48" data-name="Group 48" transform="translate(0 2.961)">
        <path id="Path_62" data-name="Path 62" d="M519.056,779.916a1.28,1.28,0,0,1-.9-2.185l1.417-1.417a1.28,1.28,0,1,1,1.81,1.81l-1.417,1.417A1.275,1.275,0,0,1,519.056,779.916Z" transform="translate(-517.777 -775.939)"/>
      </g>
      <g id="Group_49" data-name="Group 49" transform="translate(6.679 2.697)">
        <rect id="Rectangle_17" data-name="Rectangle 17" width="0.768" height="7.16"/>
      </g>
      <g id="Group_50" data-name="Group 50" transform="translate(4.366 0)">
        <path id="Path_63" data-name="Path 63" d="M544.2,763.827a1.276,1.276,0,0,1-.9-.375l-1.417-1.417a1.28,1.28,0,1,1,1.81-1.81l1.417,1.417a1.28,1.28,0,0,1-.9,2.185Z" transform="translate(-541.498 -759.85)"/>
      </g>
    </g>
    <g id="Group_52" data-name="Group 52" transform="translate(309.276 627.386)">
      <rect id="Rectangle_18" data-name="Rectangle 18" width="29.936" height="5.271" rx="2.635" transform="translate(0.568 0.567)" fill="#ffb41d"/>
      <path id="Path_64" data-name="Path 64" d="M484.545,811.134H458.576a2.554,2.554,0,0,1-2.551-2.551v-1.3a2.554,2.554,0,0,1,2.551-2.551h25.968a2.554,2.554,0,0,1,2.551,2.551v1.3A2.554,2.554,0,0,1,484.545,811.134Zm-25.968-5.271a1.418,1.418,0,0,0-1.417,1.416v1.3A1.418,1.418,0,0,0,458.576,810h25.968a1.418,1.418,0,0,0,1.416-1.417v-1.3a1.418,1.418,0,0,0-1.416-1.416Z" transform="translate(-456.025 -804.729)"/>
    </g>
    <g id="Group_53" data-name="Group 53" transform="translate(319.317 642.107)">
      <path id="Path_65" data-name="Path 65" d="M510.586,884.72h6.526c3.146,0,4.8,1.722,4.8,4.719a4.671,4.671,0,0,1-2.274,4.315l2.742,4.655v1.19h-3.55l-3.061-5.442h-1.531V899.6h-3.656Zm5.909,6.42c1.169,0,1.722-.425,1.722-1.637,0-1.19-.553-1.594-1.722-1.594h-2.253v3.231Z" transform="translate(-510.586 -884.72)" fill="#e6e6e6"/>
    </g>
    <g id="Group_61" data-name="Group 61" transform="translate(322.204 621.823)">
      <g id="Group_54" data-name="Group 54" transform="translate(0 3.601)">
        <path id="Path_66" data-name="Path 66" d="M526.272,794.071" transform="translate(-526.272 -794.071)" fill="none" stroke="#09f" stroke-miterlimit="10" stroke-width="4.173"/>
      </g>
      <g id="Group_55" data-name="Group 55" transform="translate(0 7.16)">
        <path id="Path_67" data-name="Path 67" d="M526.272,813.41" transform="translate(-526.272 -813.41)" fill="none" stroke="#09f" stroke-miterlimit="10" stroke-width="4.173"/>
      </g>
      <g id="Group_56" data-name="Group 56" transform="translate(0 3.601)">
        <path id="Path_68" data-name="Path 68" d="M526.272,794.071" transform="translate(-526.272 -794.071)" fill="none" stroke="#09f" stroke-linecap="round" stroke-miterlimit="10" stroke-width="13.909"/>
      </g>
      <g id="Group_57" data-name="Group 57" transform="translate(1.417 2.184)">
        <path id="Path_69" data-name="Path 69" d="M533.972,786.371" transform="translate(-533.972 -786.371)" fill="none" stroke="#ffda2b" stroke-linecap="round" stroke-miterlimit="10" stroke-width="13.909"/>
      </g>
      <g id="Group_58" data-name="Group 58" transform="translate(5.215 0)">
        <path id="Path_70" data-name="Path 70" d="M554.612,774.5" transform="translate(-554.612 -774.504)" fill="none" stroke="#09f" stroke-miterlimit="10" stroke-width="4.173"/>
      </g>
      <g id="Group_59" data-name="Group 59" transform="translate(5.215 7.16)">
        <path id="Path_71" data-name="Path 71" d="M554.612,813.41" transform="translate(-554.612 -813.41)" fill="none" stroke="#09f" stroke-miterlimit="10" stroke-width="4.173"/>
      </g>
      <g id="Group_60" data-name="Group 60" transform="translate(5.215 0)">
        <path id="Path_72" data-name="Path 72" d="M554.612,774.5" transform="translate(-554.612 -774.504)" fill="none" stroke="#09f" stroke-linecap="round" stroke-miterlimit="10" stroke-width="13.909"/>
      </g>
    </g>
    <g id="Group_62" data-name="Group 62" transform="translate(282.315 594.581)">
      <path id="Path_73" data-name="Path 73" d="M310.3,864.925v1.059h-.666v-2.875h.666v1.054h3.1v.763Z" transform="translate(-309.611 -819.559)" fill="#fff"/>
      <path id="Path_74" data-name="Path 74" d="M309.667,837.906l2.523.125a1.461,1.461,0,0,1-.144,2.9l-2.523-.125.038-.762,2.556.127c.328.016.6-.207.62-.664s-.224-.695-.551-.711l-2.556-.127Z" transform="translate(-309.523 -798.995)" fill="#fff"/>
      <path id="Path_75" data-name="Path 75" d="M312.231,814.095l-.171,1.045-.658-.108.464-2.838.658.108-.17,1.04,3.056.5-.123.753Z" transform="translate(-311.056 -778.015)" fill="#fff"/>
      <path id="Path_76" data-name="Path 76" d="M318.432,791.113a1.507,1.507,0,0,1,.816-2.886l1.158.328a1.507,1.507,0,0,1-.816,2.886Zm.572-2.162a.747.747,0,0,0-.4,1.417l1.231.348a.747.747,0,0,0,.4-1.417Z" transform="translate(-315.99 -758.407)" fill="#fff"/>
      <path id="Path_77" data-name="Path 77" d="M324.628,765.085l.629-1.5a1.06,1.06,0,0,1,1.531-.624,1.135,1.135,0,0,1,.763.99l1.423-.156.233.1-.286.684-1.607.178-.224.536,1.3.546-.295.7Zm2.147-.716a.519.519,0,1,0-.957-.4l-.28.669.957.4Z" transform="translate(-321.848 -737.74)" fill="#fff"/>
      <path id="Path_78" data-name="Path 78" d="M335.853,747.435l.361-.673,3.318,1.777-.36.673Z" transform="translate(-331.007 -724.625)" fill="#fff"/>
      <path id="Path_79" data-name="Path 79" d="M343.988,725.219l.388-.581,2.749.1-1.949-1.3.424-.635,3.13,2.09-.388.581-2.749-.1,1.949,1.3-.424.635Z" transform="translate(-337.645 -705.077)" fill="#fff"/>
      <path id="Path_80" data-name="Path 80" d="M364.142,706.854l-.933-.8a1.31,1.31,0,0,1-.048-2.021,1.283,1.283,0,0,1,1.923-.231l-.5.578a.624.624,0,0,0-.923.142.6.6,0,0,0,.02.932l.954.821a.605.605,0,0,0,.934-.1.876.876,0,0,0,.189-.788l-.31-.266-.435.505-.481-.414.933-1.084,1.54,1.326-.266.31-.373-.044a1.179,1.179,0,0,1-.313.965A1.248,1.248,0,0,1,364.142,706.854Z" transform="translate(-352.922 -689.294)" fill="#fff"/>
      <path id="Path_81" data-name="Path 81" d="M385.131,694.409l1.282-1.21.435.461-1.282,1.21Z" transform="translate(-371.217 -680.919)" fill="#fff"/>
      <path id="Path_82" data-name="Path 82" d="M407.87,663.046l-1.3-.62,1.331,2.007-.614.407-2.08-3.135.614-.407,1.742.838-.094-1.931.6-.4,2.08,3.135-.614.407-1.331-2.007.065,1.44Z" transform="translate(-387.597 -653.674)" fill="#fff"/>
      <path id="Path_83" data-name="Path 83" d="M431.979,648.674l2.192-1.095.3.6-1.509.754.4.8,1.289-.643.283.567-1.288.644.4.808,1.519-.759.3.6-2.2,1.1Z" transform="translate(-409.443 -643.695)" fill="#fff"/>
      <path id="Path_84" data-name="Path 84" d="M454.619,638.566l.657-.237,2.151,1.715-.8-2.2.718-.259,1.278,3.538-.657.237-2.15-1.715.8,2.2-.718.259Z" transform="translate(-427.917 -635.536)" fill="#fff"/>
      <path id="Path_85" data-name="Path 85" d="M480.908,632.007l-1.031.243-.153-.649,2.8-.66.153.649-1.026.241.71,3.013-.743.175Z" transform="translate(-448.402 -630.119)" fill="#fff"/>
      <path id="Path_86" data-name="Path 86" d="M505.665,629.225a1.507,1.507,0,0,1,2.979-.353l.142,1.2a1.507,1.507,0,0,1-2.979.352Zm2.216-.3a.643.643,0,0,0-.8-.533c-.475.056-.7.359-.658.706l.151,1.271a.642.642,0,0,0,.8.533c.475-.056.7-.359.658-.706Z" transform="translate(-469.559 -627.459)" fill="#fff"/>
      <path id="Path_87" data-name="Path 87" d="M533.351,626.472l1.629.026a1.06,1.06,0,0,1,1.147,1.19,1.135,1.135,0,0,1-.636,1.076l.673,1.264,0,.253-.742-.012-.762-1.426-.58-.01-.023,1.414-.763-.012Zm1.461,1.728a.519.519,0,1,0,.017-1.037l-.725-.012-.017,1.037Z" transform="translate(-492.11 -626.472)" fill="#fff"/>
      <path id="Path_88" data-name="Path 88" d="M558.747,627.42l.76.072-.354,3.747-.76-.072Z" transform="translate(-512.593 -627.245)" fill="#fff"/>
      <path id="Path_89" data-name="Path 89" d="M573.682,629.313l.686.133.968,2.574.446-2.3.749.145-.716,3.694-.686-.133-.969-2.575-.446,2.3-.749-.145Z" transform="translate(-524.485 -628.79)" fill="#fff"/>
      <path id="Path_90" data-name="Path 90" d="M599.663,639l.381-1.17a1.31,1.31,0,0,1,1.846-.823,1.283,1.283,0,0,1,.955,1.685l-.726-.237a.624.624,0,0,0-.486-.8.6.6,0,0,0-.853.378l-.39,1.2a.605.605,0,0,0,.449.825.875.875,0,0,0,.8-.13l.127-.388-.634-.207.2-.6,1.359.443-.629,1.932-.388-.127-.1-.361a1.18,1.18,0,0,1-1.011.083A1.248,1.248,0,0,1,599.663,639Z" transform="translate(-546.197 -634.978)" fill="#fff"/>
      <path id="Path_91" data-name="Path 91" d="M636.661,658.708l1.565.813-.292.563-1.565-.812Z" transform="translate(-576.219 -652.776)" fill="#fff"/>
      <path id="Path_92" data-name="Path 92" d="M658.7,672.908l3.138-2.04.6.446-1.046,3.6-.151.2-.6-.449.284-.887-1.031-.767-.776.521-.565-.42Zm2.414.221.4-1.227-1.068.733Z" transform="translate(-594.32 -662.698)" fill="#fff"/>
      <path id="Path_93" data-name="Path 93" d="M682.1,684.52l.992.938a1.292,1.292,0,0,1,.2,1.972l-.8.852a1.292,1.292,0,0,1-1.98-.089l-.992-.938Zm-1.135,3.188a.64.64,0,0,0,.952.065l.835-.883a.641.641,0,0,0-.118-.947l-.437-.414-1.669,1.766Z" transform="translate(-611.422 -673.837)" fill="#fff"/>
      <path id="Path_94" data-name="Path 94" d="M699.383,707.029l.488-1.356-1.864,1.523-.466-.57,2.913-2.38.466.57-.66,1.817,1.912-.285.452.553-2.913,2.38-.466-.57,1.864-1.523-1.426.208Z" transform="translate(-626.133 -689.932)" fill="#fff"/>
      <path id="Path_95" data-name="Path 95" d="M718.369,729.047l.419.638-3.145,2.066-.419-.638Z" transform="translate(-640.562 -710.17)" fill="#fff"/>
      <path id="Path_96" data-name="Path 96" d="M725.286,745.088l.358.674c-.4.215-.355.615-.178.947s.437.468.651.354c.261-.139.138-.439.082-1.036l-.021-.165c-.072-.57-.069-1.1.468-1.387.607-.323,1.251-.063,1.655.7a1.217,1.217,0,0,1-.453,1.849l-.359-.674c.356-.189.372-.514.19-.856s-.421-.47-.634-.357c-.19.1-.189.308-.155.545l.058.4c.021.153.042.263.047.352l.025.322a.99.99,0,0,1-.449.988c-.626.333-1.283.129-1.743-.735A1.308,1.308,0,0,1,725.286,745.088Z" transform="translate(-648.217 -722.647)" fill="#fff"/>
      <path id="Path_97" data-name="Path 97" d="M735.978,768.281l.278.711c-.426.167-.423.57-.286.92s.381.515.606.426c.275-.108.188-.42.2-1.019l0-.167c-.006-.575.059-1.1.624-1.324.64-.251,1.25.082,1.563.882a1.217,1.217,0,0,1-.663,1.784l-.278-.711c.375-.147.428-.468.287-.828s-.363-.516-.589-.427c-.2.078-.224.284-.216.523l.012.4c0,.155.012.267.006.355l-.012.322a.99.99,0,0,1-.56.929c-.66.259-1.289-.02-1.646-.931A1.308,1.308,0,0,1,735.978,768.281Z" transform="translate(-656.835 -741.747)" fill="#fff"/>
      <path id="Path_98" data-name="Path 98" d="M745.7,791.543l.211.734-3.617,1.04-.211-.734Z" transform="translate(-662.475 -761.165)" fill="#fff"/>
      <path id="Path_99" data-name="Path 99" d="M748.915,808.165a1.507,1.507,0,0,1,.547,2.949l-1.184.22a1.507,1.507,0,0,1-.547-2.949Zm.445,2.192a.643.643,0,0,0,.479-.838c-.087-.47-.4-.674-.747-.61l-1.258.233a.643.643,0,0,0-.479.838c.087.47.4.674.747.61Z" transform="translate(-666.188 -774.704)" fill="#fff"/>
      <path id="Path_100" data-name="Path 100" d="M753.688,835.251l.043.7-2.252,1.581,2.34-.143.047.762-3.756.23-.043-.7,2.252-1.582-2.34.143-.047-.762Z" transform="translate(-668.883 -796.829)" fill="#fff"/>
      <path id="Path_101" data-name="Path 101" d="M751.672,861.614v.763c-.457,0-.6.376-.6.753,0,.392.167.618.409.618.3,0,.328-.322.559-.876l.059-.156c.2-.537.457-1.005,1.064-1.005.688,0,1.134.532,1.134,1.392s-.4,1.419-1.268,1.419v-.763c.4,0,.57-.28.57-.667s-.151-.613-.392-.613c-.215,0-.312.183-.392.408l-.134.376c-.054.145-.086.253-.124.333l-.129.3a.991.991,0,0,1-.86.661c-.709,0-1.193-.489-1.193-1.467A1.308,1.308,0,0,1,751.672,861.614Z" transform="translate(-669.241 -818.34)" fill="#fff"/>
    </g>
    <g id="Group_68" data-name="Group 68" transform="translate(303.722 683.934)">
      <g id="Group_63" data-name="Group 63" transform="translate(28.675 5.398)">
        <path id="Path_102" data-name="Path 102" d="M585.106,1141.6l.467,1.437a.382.382,0,0,0,.363.264h1.511a.382.382,0,0,1,.224.691l-1.222.888a.382.382,0,0,0-.139.427l.467,1.437a.382.382,0,0,1-.588.427l-1.222-.888a.382.382,0,0,0-.449,0l-1.222.888a.382.382,0,0,1-.588-.427l.467-1.437a.382.382,0,0,0-.139-.427l-1.222-.888a.382.382,0,0,1,.225-.691h1.511a.382.382,0,0,0,.363-.264l.467-1.437A.382.382,0,0,1,585.106,1141.6Z" transform="translate(-581.655 -1141.334)" fill="#294baa"/>
      </g>
      <g id="Group_64" data-name="Group 64" transform="translate(7.331 5.398)">
        <path id="Path_103" data-name="Path 103" d="M469.127,1141.6l.467,1.437a.382.382,0,0,0,.363.264h1.511a.382.382,0,0,1,.225.691l-1.222.888a.382.382,0,0,0-.139.427l.467,1.437a.382.382,0,0,1-.588.427l-1.222-.888a.382.382,0,0,0-.449,0l-1.222.888a.382.382,0,0,1-.588-.427l.467-1.437a.382.382,0,0,0-.139-.427l-1.222-.888a.382.382,0,0,1,.225-.691h1.511a.382.382,0,0,0,.363-.264l.467-1.437A.382.382,0,0,1,469.127,1141.6Z" transform="translate(-465.677 -1141.334)" fill="#294baa"/>
      </g>
      <g id="Group_65" data-name="Group 65" transform="translate(17.315 7.516)">
        <path id="Path_104" data-name="Path 104" d="M524.148,1153.165l.571,1.757a.467.467,0,0,0,.444.323h1.848a.467.467,0,0,1,.275.845l-1.495,1.086a.467.467,0,0,0-.17.522l.571,1.757a.467.467,0,0,1-.719.522l-1.495-1.086a.468.468,0,0,0-.549,0l-1.495,1.086a.467.467,0,0,1-.719-.522l.571-1.757a.467.467,0,0,0-.17-.522l-1.495-1.086a.467.467,0,0,1,.275-.845h1.847a.467.467,0,0,0,.444-.323l.571-1.757A.467.467,0,0,1,524.148,1153.165Z" transform="translate(-519.928 -1152.842)" fill="#294baa"/>
      </g>
      <g id="Group_66" data-name="Group 66" transform="translate(37.473 0.152)">
        <path id="Path_105" data-name="Path 105" d="M632.094,1113.03l.356,1.1a.291.291,0,0,0,.277.2h1.152a.291.291,0,0,1,.171.527l-.932.677a.292.292,0,0,0-.106.326l.356,1.1a.291.291,0,0,1-.448.326l-.932-.677a.292.292,0,0,0-.343,0l-.932.677a.291.291,0,0,1-.448-.326l.356-1.1a.291.291,0,0,0-.106-.326l-.932-.677a.291.291,0,0,1,.171-.527h1.152a.291.291,0,0,0,.277-.2l.356-1.1A.291.291,0,0,1,632.094,1113.03Z" transform="translate(-629.463 -1112.829)" fill="#294baa"/>
      </g>
      <g id="Group_67" data-name="Group 67" transform="translate(0 0)">
        <path id="Path_106" data-name="Path 106" d="M428.472,1112.2l.356,1.1a.291.291,0,0,0,.277.2h1.152a.291.291,0,0,1,.171.527l-.932.677a.291.291,0,0,0-.106.326l.356,1.1a.291.291,0,0,1-.448.326l-.932-.677a.291.291,0,0,0-.342,0l-.932.677a.291.291,0,0,1-.448-.326l.356-1.1a.292.292,0,0,0-.106-.326l-.932-.677a.291.291,0,0,1,.171-.527h1.152a.292.292,0,0,0,.277-.2l.356-1.1A.291.291,0,0,1,428.472,1112.2Z" transform="translate(-425.842 -1112.002)" fill="#294baa"/>
      </g>
    </g>
  </g>
</svg>
