<svg xmlns="http://www.w3.org/2000/svg" width="100.255" height="100.165" viewBox="0 0 100.255 100.165">
  <g id="noun-score-4421536" transform="translate(-18.297)">
    <path id="Path_894" data-name="Path 894" d="M229.5,346.536h-12.03v-12.03a2.006,2.006,0,0,0-2.005-2.005H147.291a2.006,2.006,0,0,0-2.005,2.005v12.03h-12.03a2.006,2.006,0,0,0-2.005,2.005V352.9a5.972,5.972,0,0,0,1.762,4.253l1.418,1.418-1.418,1.418a5.97,5.97,0,0,0-1.762,4.253v4.355a2.006,2.006,0,0,0,2.005,2.005h28.071a2.006,2.006,0,0,0,2.005-2.005v-12.03h36.091v12.03a2.006,2.006,0,0,0,2.005,2.005H229.5a2.006,2.006,0,0,0,2.005-2.005v-4.355a5.972,5.972,0,0,0-1.763-4.253l-1.418-1.418,1.418-1.418A5.97,5.97,0,0,0,231.5,352.9v-4.355A2.006,2.006,0,0,0,229.5,346.536Zm-16.041,6.015H183.382V336.51h30.076ZM149.3,336.51h30.076v16.041H149.3Zm10.025,30.076H135.26v-2.35a2.024,2.024,0,0,1,.587-1.418l2.835-2.835a2,2,0,0,0,0-2.836l-2.835-2.838a2.013,2.013,0,0,1-.588-1.415v-2.35h10.025v4.01a2.006,2.006,0,0,0,2.005,2.005h12.03ZM227.494,352.9a2.024,2.024,0,0,1-.587,1.418l-2.835,2.838a2,2,0,0,0,0,2.833l2.835,2.835a2.024,2.024,0,0,1,.588,1.418v2.35H203.433V356.561h12.03a2.006,2.006,0,0,0,2.005-2.005v-4.01h10.025Z" transform="translate(-112.953 -270.432)" fill="#ffb41d"/>
    <path id="Path_895" data-name="Path 895" d="M305.624,73.225l-10.041-1.46-4.489-9.1a2.089,2.089,0,0,0-3.6,0l-4.489,9.1-10.041,1.46a2.005,2.005,0,0,0-1.111,3.42l7.267,7.082-1.714,10a2.005,2.005,0,0,0,2.91,2.113l8.977-4.72,8.981,4.72a2.005,2.005,0,0,0,2.91-2.113l-1.714-10,7.267-7.082a2,2,0,0,0-1.113-3.42Zm-9.709,8.365a2.015,2.015,0,0,0-.577,1.774l1.207,7.034-6.318-3.32a2,2,0,0,0-1.865,0l-6.318,3.32,1.207-7.034a2.007,2.007,0,0,0-.577-1.774l-5.111-4.98,7.062-1.027a2,2,0,0,0,1.51-1.1l3.161-6.4,3.158,6.4a2,2,0,0,0,1.51,1.1l7.062,1.027Z" transform="translate(-220.87 -61.639)" fill="#ffb41d"/>
    <path id="Path_896" data-name="Path 896" d="M447.24,153.334a2.007,2.007,0,0,0-1.618-1.365l-10.041-1.46-4.489-9.1a2.088,2.088,0,0,0-3.6,0l-4.489,9.1-10.041,1.46a2.005,2.005,0,0,0-1.111,3.42l7.267,7.082-1.714,10a2.005,2.005,0,0,0,2.91,2.113l8.978-4.718,8.981,4.72a2.005,2.005,0,0,0,2.91-2.113l-1.714-10,7.267-7.082a2.008,2.008,0,0,0,.5-2.057Zm-11.327,7a2.015,2.015,0,0,0-.577,1.774l1.207,7.034-6.318-3.32a2,2,0,0,0-1.865,0l-6.318,3.32,1.207-7.034a2.006,2.006,0,0,0-.577-1.774l-5.111-4.98,7.062-1.027a2,2,0,0,0,1.51-1.1l3.161-6.4,3.158,6.4a2,2,0,0,0,1.51,1.1l7.062,1.027Z" transform="translate(-328.787 -122.338)" fill="#ffb41d"/>
    <path id="Path_897" data-name="Path 897" d="M151.093,141.425a2.089,2.089,0,0,0-3.6,0l-4.489,9.1-10.041,1.46a2.005,2.005,0,0,0-1.111,3.42l7.267,7.082-1.714,10a2.005,2.005,0,0,0,2.91,2.113l8.978-4.722,8.981,4.72a2.005,2.005,0,0,0,2.91-2.113l-1.714-10,7.267-7.082a2.005,2.005,0,0,0-1.111-3.42l-10.041-1.46Zm4.822,18.922a2.015,2.015,0,0,0-.577,1.774l1.207,7.034-6.318-3.32a2,2,0,0,0-1.865,0l-6.318,3.32,1.207-7.034a2.006,2.006,0,0,0-.577-1.774l-5.111-4.98,7.062-1.027a2,2,0,0,0,1.51-1.1l3.161-6.4,3.158,6.4a2,2,0,0,0,1.51,1.1l7.062,1.027Z" transform="translate(-112.952 -122.35)" fill="#ffb41d"/>
  </g>
</svg>
