<svg xmlns="http://www.w3.org/2000/svg" width="85.445" height="100.665" viewBox="0 0 85.445 100.665">
  <path id="noun-face-to-face-5676035" d="M227.7,71.068c11.8-.307,11.762-17.566,0-17.873C215.9,53.5,215.9,70.761,227.7,71.068Zm0-14.029c6.688.115,6.688,10.071,0,10.186C221.012,67.109,221.012,57.153,227.7,57.039Zm9.609,17.642H218.091l-4.843,39.78h28.867l-4.843-39.78Zm-15.8,3.844h12.377l3.921,32.093H217.63l3.921-32.093ZM230.159,118H234v28.366a6.3,6.3,0,0,1-12.607,0V118h3.844v28.366c0,3.19,4.882,3.19,4.882,0V118ZM199.949,64.5h3.844V91.017l-46.123.423V56.771h57.654v3.844h-53.81V87.519l38.436-.346V64.5ZM191.3,72.03h-21.87V68.186H191.3Zm-21.87,3.844h14.183v3.844H169.431Zm8.879,25.6c-.115-6.765-10.186-6.765-10.3,0C168.124,108.237,178.195,108.237,178.31,101.472Zm-6.457,0a1.307,1.307,0,0,1,2.613,0A1.307,1.307,0,0,1,171.853,101.472ZM164.7,129.914h16.912V108.505H164.7Zm3.844-17.566h9.225v13.722h-9.225Zm4.843,20.717h3.844v15.528a4.267,4.267,0,0,1-8.533,0V133.066h3.844v15.528c0,.462.807.462.807,0V133.066Z" transform="translate(-157.169 -52.695)" fill="#ffb41d" stroke="#feb41d" stroke-linejoin="round" stroke-width="1"/>
</svg>
