<svg xmlns="http://www.w3.org/2000/svg" width="101.863" height="85.518" viewBox="0 0 101.863 85.518">
  <g id="noun-digital-education-4247115" transform="translate(-4.36 0.5)">
    <path id="Path_797" data-name="Path 797" d="M161.177,201.728H93.728a7.262,7.262,0,0,1-7.254-7.254V153.838a7.889,7.889,0,0,1,7.88-7.88h4.369a1.576,1.576,0,0,1,1.576,1.576v26.329a1.264,1.264,0,0,0,1.263,1.263h51.78a1.264,1.264,0,0,0,1.262-1.263V147.534a1.576,1.576,0,0,1,1.576-1.576h4.371a7.889,7.889,0,0,1,7.88,7.88v40.636a7.259,7.259,0,0,1-7.252,7.254ZM94.354,149.11a4.733,4.733,0,0,0-4.728,4.728v40.636a4.107,4.107,0,0,0,4.1,4.1h67.449a4.107,4.107,0,0,0,4.1-4.1V153.839a4.733,4.733,0,0,0-4.728-4.728h-2.795v24.754a4.42,4.42,0,0,1-4.414,4.415H101.562a4.421,4.421,0,0,1-4.416-4.415V149.11Z" transform="translate(-81.614 -129.35)" fill="#ffb41d" stroke="#feb41d" stroke-linejoin="round" stroke-width="1"/>
    <path id="Path_798" data-name="Path 798" d="M161.177,374.579H93.728a7.262,7.262,0,0,1-7.254-7.254v-6.033a1.576,1.576,0,0,1,1.576-1.576h78.805a1.576,1.576,0,0,1,1.576,1.576v6.033a7.26,7.26,0,0,1-7.253,7.254Zm-71.552-11.71v4.456a4.107,4.107,0,0,0,4.1,4.1h67.449a4.107,4.107,0,0,0,4.1-4.1v-4.456Z" transform="translate(-81.614 -302.202)" fill="#ffb41d" stroke="#feb41d" stroke-linejoin="round" stroke-width="1"/>
    <path id="Path_799" data-name="Path 799" d="M273.209,435.415H260.35a1.576,1.576,0,0,1-1.576-1.576V422.485a1.576,1.576,0,0,1,1.576-1.576h12.858a1.576,1.576,0,0,1,1.576,1.576V433.84A1.575,1.575,0,0,1,273.209,435.415Zm-11.283-3.152h9.707v-8.2h-9.707Z" transform="translate(-220.941 -351.684)" fill="#ffb41d" stroke="#feb41d" stroke-linejoin="round" stroke-width="1"/>
    <path id="Path_800" data-name="Path 800" d="M248.16,483.393H219.771a1.576,1.576,0,1,1,0-3.152H248.16a1.576,1.576,0,1,1,0,3.152Z" transform="translate(-188.128 -399.661)" fill="#ffb41d" stroke="#feb41d" stroke-linejoin="round" stroke-width="1"/>
    <path id="Path_801" data-name="Path 801" d="M198.431,108.1H146.652a4.421,4.421,0,0,1-4.416-4.415V60.751a1.576,1.576,0,0,1,1.576-1.576h23.051a7.245,7.245,0,0,1,5.678,2.744,7.245,7.245,0,0,1,5.678-2.744h23.051a1.576,1.576,0,0,1,1.576,1.576v42.936a4.419,4.419,0,0,1-4.413,4.414ZM145.389,62.328v41.359a1.264,1.264,0,0,0,1.263,1.263h51.779a1.264,1.264,0,0,0,1.262-1.263V62.328H178.22a4.107,4.107,0,0,0-4.1,4.1,1.576,1.576,0,1,1-3.152,0,4.107,4.107,0,0,0-4.1-4.1Z" transform="translate(-126.704 -59.176)" fill="#ffb41d" stroke="#feb41d" stroke-linejoin="round" stroke-width="1"/>
    <path id="Path_802" data-name="Path 802" d="M293.938,132.091a1.576,1.576,0,0,1-1.576-1.576v-40.1a1.576,1.576,0,0,1,3.152,0v40.1a1.574,1.574,0,0,1-1.575,1.575Z" transform="translate(-248.1 -83.164)" fill="#ffb41d" stroke="#feb41d" stroke-linejoin="round" stroke-width="1"/>
    <path id="Path_803" data-name="Path 803" d="M194.75,118.223h-15.8a1.576,1.576,0,1,1,0-3.152h15.8a1.576,1.576,0,1,1,0,3.152Z" transform="translate(-155.115 -104.374)" fill="#ffb41d" stroke="#feb41d" stroke-linejoin="round" stroke-width="1"/>
    <path id="Path_804" data-name="Path 804" d="M187.309,154.973H166.891a1.576,1.576,0,1,1,0-3.152h20.417a1.576,1.576,0,0,1,0,3.152Z" transform="translate(-145.367 -134.091)" fill="#ffb41d" stroke="#feb41d" stroke-linejoin="round" stroke-width="1"/>
    <path id="Path_805" data-name="Path 805" d="M187.309,191.723H166.891a1.576,1.576,0,0,1,0-3.152h20.417a1.576,1.576,0,0,1,0,3.152Z" transform="translate(-145.367 -163.809)" fill="#ffb41d" stroke="#feb41d" stroke-linejoin="round" stroke-width="1"/>
    <path id="Path_806" data-name="Path 806" d="M187.309,228.473H166.891a1.576,1.576,0,0,1,0-3.152h20.417a1.576,1.576,0,0,1,0,3.152Z" transform="translate(-145.367 -193.526)" fill="#ffb41d" stroke="#feb41d" stroke-linejoin="round" stroke-width="1"/>
    <path id="Path_807" data-name="Path 807" d="M187.309,265.223H166.891a1.576,1.576,0,0,1,0-3.152h20.417a1.576,1.576,0,0,1,0,3.152Z" transform="translate(-145.367 -223.243)" fill="#ffb41d" stroke="#feb41d" stroke-linejoin="round" stroke-width="1"/>
    <path id="Path_808" data-name="Path 808" d="M342.154,118.223H326.347a1.576,1.576,0,1,1,0-3.152h15.806a1.576,1.576,0,0,1,0,3.152Z" transform="translate(-274.308 -104.374)" fill="#ffb41d" stroke="#feb41d" stroke-linejoin="round" stroke-width="1"/>
    <path id="Path_809" data-name="Path 809" d="M334.719,154.973H314.3a1.576,1.576,0,1,1,0-3.152h20.417a1.576,1.576,0,1,1,0,3.152Z" transform="translate(-264.567 -134.091)" fill="#ffb41d" stroke="#feb41d" stroke-linejoin="round" stroke-width="1"/>
    <path id="Path_810" data-name="Path 810" d="M334.719,191.723H314.3a1.576,1.576,0,1,1,0-3.152h20.417a1.576,1.576,0,1,1,0,3.152Z" transform="translate(-264.567 -163.809)" fill="#ffb41d" stroke="#feb41d" stroke-linejoin="round" stroke-width="1"/>
    <path id="Path_811" data-name="Path 811" d="M334.719,228.473H314.3a1.576,1.576,0,1,1,0-3.152h20.417a1.576,1.576,0,1,1,0,3.152Z" transform="translate(-264.567 -193.526)" fill="#ffb41d" stroke="#feb41d" stroke-linejoin="round" stroke-width="1"/>
    <path id="Path_812" data-name="Path 812" d="M334.719,265.223H314.3a1.576,1.576,0,1,1,0-3.152h20.417a1.576,1.576,0,1,1,0,3.152Z" transform="translate(-264.567 -223.243)" fill="#ffb41d" stroke="#feb41d" stroke-linejoin="round" stroke-width="1"/>
    <path id="Path_813" data-name="Path 813" d="M512.688,309.638a1.576,1.576,0,0,1-1.576-1.576V290.348a1.865,1.865,0,0,0-1.864-1.864h-9.414a1.576,1.576,0,1,1,0-3.152h9.414a5.022,5.022,0,0,1,5.016,5.016v17.715A1.576,1.576,0,0,1,512.688,309.638Z" transform="translate(-414.594 -242.052)" fill="#ffb41d" stroke="#feb41d" stroke-linejoin="round" stroke-width="1"/>
    <path id="Path_814" data-name="Path 814" d="M541.416,416.821a7.639,7.639,0,0,1-7.631-7.63v-4.619a7.63,7.63,0,1,1,15.26,0v4.619A7.639,7.639,0,0,1,541.416,416.821Zm0-16.727a4.483,4.483,0,0,0-4.479,4.478v4.619a4.478,4.478,0,0,0,8.956,0v-4.619A4.483,4.483,0,0,0,541.416,400.094Z" transform="translate(-443.322 -332.302)" fill="#ffb41d" stroke="#feb41d" stroke-linejoin="round" stroke-width="1"/>
    <path id="Path_815" data-name="Path 815" d="M547.5,436.54H535.4a1.576,1.576,0,0,1,0-3.152h12.1a1.576,1.576,0,0,1,0,3.152Z" transform="translate(-443.357 -361.774)" fill="#ffb41d" stroke="#feb41d" stroke-linejoin="round" stroke-width="1"/>
    <path id="Path_816" data-name="Path 816" d="M567,407.715a1.576,1.576,0,0,1-1.576-1.576v-7.615a1.576,1.576,0,0,1,3.152,0v7.615A1.576,1.576,0,0,1,567,407.715Z" transform="translate(-468.908 -332.308)" fill="#ffb41d" stroke="#feb41d" stroke-linejoin="round" stroke-width="1"/>
  </g>
</svg>
