<svg xmlns="http://www.w3.org/2000/svg" width="91.941" height="94.518" viewBox="0 0 91.941 94.518">
  <g id="noun-premium-2157294" transform="translate(-16.843 0.5)">
    <path id="Path_845" data-name="Path 845" d="M436.41,168.145l8.377-7.088h-4.124Z" transform="translate(-354.086 -137.946)" fill="#ffb41d" stroke="#feb41d" stroke-linejoin="bevel" stroke-width="1"/>
    <path id="Path_846" data-name="Path 846" d="M421.2,161.06v7.652l4.591-7.652Z" transform="translate(-342.952 -137.899)" fill="#ffb41d" stroke="#feb41d" stroke-linejoin="bevel" stroke-width="1"/>
    <path id="Path_847" data-name="Path 847" d="M474.071,132.475l-1.955-3.248-1.956,3.248Z" transform="translate(-381.965 -112.975)" fill="#ffb41d" stroke="#feb41d" stroke-linejoin="bevel" stroke-width="1"/>
    <path id="Path_848" data-name="Path 848" d="M341.59,161.06l8.24,6.972-4.12-6.972Z" transform="translate(-279.174 -137.958)" fill="#ffb41d" stroke="#feb41d" stroke-linejoin="bevel" stroke-width="1"/>
    <path id="Path_849" data-name="Path 849" d="M451.751,123.96H447.84l1.956,3.249Z" transform="translate(-364.247 -108.792)" fill="#ffb41d" stroke="#feb41d" stroke-linejoin="bevel" stroke-width="1"/>
    <path id="Path_850" data-name="Path 850" d="M385.365,168.85v-7.79h-4.6Z" transform="translate(-310.869 -137.886)" fill="#ffb41d" stroke="#feb41d" stroke-linejoin="bevel" stroke-width="1"/>
    <path id="Path_851" data-name="Path 851" d="M213.334,79.426h-2.956a25.638,25.638,0,0,0,.3-3.9,25.331,25.331,0,0,0-50.662,0,25.667,25.667,0,0,0,.3,3.9H130.665a4.142,4.142,0,0,0-4.136,4.137v7.931a4.123,4.123,0,0,0,2.666,3.843v43.172a5.213,5.213,0,0,0,5.207,5.208h75.205a5.213,5.213,0,0,0,5.208-5.208V95.333a4.124,4.124,0,0,0,2.655-3.84V83.562a4.141,4.141,0,0,0-4.136-4.136ZM166.04,71.582c0-.031.01-.06.014-.091,0,0,0,0,0,0a1.214,1.214,0,0,1,.025-.178c0-.016.014-.031.019-.047s0-.025.008-.038.028-.046.04-.072a1.092,1.092,0,0,1,.05-.118l0-.006h0l0-.006,4.464-7.535a1.141,1.141,0,0,1,.98-.559h27.4a1.139,1.139,0,0,1,.98.559l4.465,7.535,0,.006h0l0,.006a1.086,1.086,0,0,1,.05.118c.011.025.03.045.04.072s0,.025.008.038.015.031.019.047a1.179,1.179,0,0,1,.027.183c0,.031.013.06.014.091,0,.006,0,.013,0,.019a1.11,1.11,0,0,1-.021.177,1.185,1.185,0,0,1-.014.118.019.019,0,0,0,0,.006c0,.014-.012.026-.016.04-.009.029-.023.056-.034.084a1,1,0,0,1-.06.149l0,0h0c0,.007-.011.013-.015.02-.018.031-.044.056-.065.086a1.14,1.14,0,0,1-.1.134c-.013.014-.03.021-.044.034s-.017.023-.028.033L186.083,87.86a1.056,1.056,0,0,1-.091.053c-.025.017-.039.043-.065.058a1.017,1.017,0,0,1-.133.056c-.033.014-.065.031-.1.042a1.144,1.144,0,0,1-.347.06h0a1.135,1.135,0,0,1-.342-.06c-.033-.01-.063-.025-.095-.038a1.1,1.1,0,0,1-.244-.141c-.017-.013-.037-.017-.052-.03L166.439,72.485c-.011-.01-.017-.022-.028-.033s-.031-.021-.044-.034a1.208,1.208,0,0,1-.1-.134c-.021-.029-.047-.055-.065-.086,0-.007-.011-.013-.015-.02h0l0,0a1.2,1.2,0,0,1-.063-.156c-.01-.025-.022-.049-.03-.075s-.014-.028-.017-.042,0,0,0-.006a43.2,43.2,0,0,1-.035-.3.185.185,0,0,1,0-.019Zm-11,10.122h5.739c.071.283.16.559.241.839.053.184.1.369.158.551.2.631.414,1.255.661,1.867.024.06.053.118.078.177q.34.826.738,1.625c.092.186.192.368.289.552q.327.62.688,1.22c.111.185.221.37.337.552q.432.678.907,1.328c.074.1.141.207.216.307.392.521.807,1.025,1.238,1.515.128.145.264.283.4.425.208.226.41.457.626.676l-12.311,0Zm-24.37,11.635a1.854,1.854,0,0,1-1.858-1.846V83.562a1.859,1.859,0,0,1,1.858-1.858h5.888V93.339Zm81.871,45.168a2.933,2.933,0,0,1-2.929,2.929H134.4a2.932,2.932,0,0,1-2.928-2.929V95.618h6.208l.011,0h.678v15.628c0,.024.012.044.014.067a1.123,1.123,0,0,0,.336.874l2.091,2.011a1.139,1.139,0,0,0,1.579,0l1.3-1.253L145,114.2a1.141,1.141,0,0,0,1.579,0l1.307-1.254,1.31,1.254a1.139,1.139,0,0,0,1.577,0l2.1-2.011a1.12,1.12,0,0,0,.338-.875c0-.024.014-.044.014-.068V95.621h.678l.011,0h16.029c.242.187.5.351.743.528.272.2.54.4.818.581.314.207.638.394.96.586.277.166.551.34.834.494.335.183.678.343,1.02.509.282.138.56.285.847.412.355.157.719.29,1.081.43.285.11.564.231.852.33.378.13.764.234,1.148.347.281.082.56.176.844.249.409.1.824.18,1.239.262.269.054.534.122.806.166.464.077.935.124,1.405.176.229.025.455.064.685.083q1.055.086,2.129.087t2.129-.087c.235-.019.465-.06.7-.085.466-.051.932-.1,1.391-.174.281-.047.555-.116.833-.172.4-.081.812-.155,1.211-.256.3-.075.584-.172.877-.258.373-.109.748-.21,1.114-.336.3-.1.59-.228.885-.343.351-.136.7-.265,1.048-.417.3-.131.584-.283.877-.426.331-.162.665-.317.99-.494.289-.157.567-.335.85-.5.317-.19.637-.374.947-.579.274-.181.538-.381.807-.573.251-.18.51-.347.757-.537h11.776Zm2.654-47.013a1.854,1.854,0,0,1-1.858,1.846h-9.983c.225-.227.436-.467.651-.7.119-.13.243-.255.359-.387.437-.5.858-1.006,1.254-1.534.064-.086.122-.176.186-.264q.491-.671.937-1.373c.112-.176.218-.354.325-.533q.367-.61.7-1.24c.095-.179.191-.357.281-.538.269-.541.521-1.091.751-1.652.021-.052.046-.1.067-.153.247-.614.465-1.242.663-1.876.056-.177.1-.357.153-.536.082-.283.172-.563.243-.848h3.412a1.86,1.86,0,0,1,1.858,1.858Z" transform="translate(-109.186 -50.198)" fill="#ffb41d" stroke="#feb41d" stroke-linejoin="bevel" stroke-width="1"/>
    <path id="Path_852" data-name="Path 852" d="M338.157,129.22l-1.955,3.248h3.91Z" transform="translate(-275.628 -112.97)" fill="#ffb41d" stroke="#feb41d" stroke-linejoin="bevel" stroke-width="1"/>
    <path id="Path_853" data-name="Path 853" d="M429.417,132.475l-1.956-3.248-1.956,3.248Z" transform="translate(-346.518 -112.975)" fill="#ffb41d" stroke="#feb41d" stroke-linejoin="bevel" stroke-width="1"/>
    <path id="Path_854" data-name="Path 854" d="M362.441,123.96H358.53l1.955,3.249Z" transform="translate(-293.352 -108.792)" fill="#ffb41d" stroke="#feb41d" stroke-linejoin="bevel" stroke-width="1"/>
    <path id="Path_855" data-name="Path 855" d="M384.771,132.475l-1.955-3.248-1.956,3.248Z" transform="translate(-311.078 -112.975)" fill="#ffb41d" stroke="#feb41d" stroke-linejoin="bevel" stroke-width="1"/>
    <path id="Path_856" data-name="Path 856" d="M407.091,123.96H403.18l1.955,3.249Z" transform="translate(-328.796 -108.792)" fill="#ffb41d" stroke="#feb41d" stroke-linejoin="bevel" stroke-width="1"/>
  </g>
</svg>
