<svg width="100.254883" height="100.164795" viewBox="0 0 100.255 100.165" fill="none" xmlns="http://www.w3.org/2000/svg" xmlns:xlink="http://www.w3.org/1999/xlink">
	<desc>
			Created with Pixso.
	</desc>
	<defs/>
	<path id="Path 894" d="M98.2485 76.1035L86.2183 76.1035L86.2183 64.0732C86.2183 62.9668 85.3193 62.0681 84.2134 62.0681L16.0405 62.0681C14.9341 62.0681 14.0356 62.9668 14.0356 64.0732L14.0356 76.1035L2.00488 76.1035C0.898926 76.1035 0 77.0024 0 78.1086L0 82.4634C0 84.0693 0.625488 85.5811 1.7627 86.7163L3.18018 88.1343L1.7627 89.552C0.625488 90.687 0 92.198 0 93.8049L0 98.1597C0 99.2661 0.898926 100.165 2.00488 100.165L30.0762 100.165C31.1826 100.165 32.0811 99.2661 32.0811 98.1597L32.0811 86.1292L68.1724 86.1292L68.1724 98.1597C68.1724 99.2661 69.0713 100.165 70.1777 100.165L98.2485 100.165C99.355 100.165 100.254 99.2661 100.254 98.1597L100.254 93.8049C100.254 92.199 99.6279 90.6873 98.4912 89.552L97.0732 88.1343L98.4912 86.7163C99.6279 85.5813 100.254 84.0703 100.254 82.4634L100.254 78.1086C100.254 77.0024 99.355 76.1035 98.2485 76.1035ZM82.208 82.1189L52.1318 82.1189L52.1318 66.0781L82.208 66.0781L82.208 82.1189ZM18.0459 66.0781L48.1216 66.0781L48.1216 82.1189L18.0459 82.1189L18.0459 66.0781ZM28.0713 96.1543L4.01025 96.1543L4.01025 93.8047C4.01025 93.2773 4.2251 92.76 4.59717 92.3867L7.43213 89.552C7.81006 89.177 8.02051 88.6675 8.02051 88.134C8.02051 87.6023 7.81006 87.0913 7.43311 86.7163L4.59814 83.8787C4.2251 83.5063 4.01025 82.9907 4.01025 82.4634L4.01025 80.1138L14.0356 80.1138L14.0356 84.1238C14.0356 85.2302 14.9341 86.1289 16.0405 86.1289L28.0713 86.1289L28.0713 96.1543ZM96.2437 82.4634C96.2437 82.9907 96.0288 83.5081 95.6562 83.8813L92.8218 86.719C92.4438 87.0933 92.2334 87.6025 92.2334 88.1343C92.2334 88.6677 92.4438 89.177 92.8208 89.552L95.6553 92.387C96.0288 92.762 96.2437 93.2776 96.2437 93.8047L96.2437 96.1545L72.1826 96.1545L72.1826 86.1292L84.2134 86.1292C85.3193 86.1292 86.2183 85.2305 86.2183 84.124L86.2183 80.1138L96.2437 80.1138L96.2437 82.4634Z" fill="#FFB41D" fill-opacity="1.000000" fill-rule="nonzero"/>
	<path id="Path 895" d="M66.4565 11.5859L56.415 10.126L51.9258 1.0271C51.25 -0.342285 49.0044 -0.342285 48.3286 1.0271L43.8394 10.126L33.7979 11.5859C33.0444 11.696 32.417 12.2261 32.1797 12.9512C31.9434 13.677 32.1392 14.4729 32.687 15.0063L39.9536 22.0884L38.2397 32.0879C38.1118 32.8398 38.4204 33.5999 39.0381 34.0491C39.6577 34.5002 40.4756 34.5566 41.1494 34.2014L50.127 29.4812L59.1074 34.2014C59.4004 34.3552 59.7207 34.4321 60.0405 34.4321C60.4556 34.4321 60.8701 34.3042 61.2192 34.0491C61.8369 33.5999 62.1455 32.8398 62.0176 32.0879L60.3032 22.0884L67.5703 15.0063C68.1152 14.4729 68.314 13.677 68.0776 12.9512C67.8379 12.2251 67.2119 11.6934 66.4565 11.5859ZM56.7471 19.9509C56.2764 20.4119 56.0596 21.0762 56.1699 21.7251L57.3765 28.7588L51.0586 25.439C50.7686 25.2859 50.4473 25.2097 50.127 25.2097C49.8062 25.2097 49.4849 25.2859 49.1943 25.4407L42.8765 28.7607L44.083 21.7268C44.1934 21.0771 43.979 20.4138 43.5059 19.9526L38.3945 14.9724L45.4561 13.9456C46.1094 13.8516 46.6733 13.4409 46.9658 12.8491L50.127 6.44629L53.2847 12.8467C53.5771 13.4382 54.1406 13.8491 54.7949 13.9431L61.8564 14.97L56.7471 19.9509Z" fill="#FFB41D" fill-opacity="1.000000" fill-rule="nonzero"/>
	<path id="Path 896" d="M100.155 30.9951C99.9189 30.269 99.2915 29.74 98.5371 29.6299L88.4956 28.1699L84.0063 19.071C83.3306 17.7017 81.085 17.7017 80.4092 19.071L75.9199 28.1699L65.8784 29.6299C65.125 29.74 64.4976 30.27 64.2603 30.9951C64.0239 31.7209 64.2197 32.5166 64.7676 33.0503L72.0342 40.1323L70.3203 50.1318C70.1924 50.8838 70.501 51.6438 71.1187 52.093C71.7383 52.5442 72.5562 52.6006 73.23 52.2454L82.2085 47.5271L91.189 52.2471C91.4819 52.4011 91.8022 52.478 92.1216 52.478C92.5371 52.478 92.9517 52.3501 93.3008 52.095C93.9185 51.6455 94.2271 50.8855 94.0991 50.1338L92.3848 40.1343L99.6514 33.052C100.196 32.5186 100.393 31.7227 100.155 30.9951ZM88.8286 37.9968C88.3574 38.4578 88.1411 39.1218 88.251 39.771L89.4575 46.8047L83.1401 43.4849C82.8501 43.3315 82.5288 43.2556 82.208 43.2556C81.8877 43.2556 81.5664 43.3315 81.2754 43.4866L74.958 46.8064L76.1646 39.7727C76.2744 39.1228 76.0605 38.4595 75.5869 37.9985L70.4756 33.0181L77.5371 31.9915C78.1909 31.8975 78.7549 31.4866 79.0474 30.895L82.208 24.4922L85.3662 30.8923C85.6587 31.4841 86.2217 31.895 86.876 31.989L93.9375 33.0156L88.8286 37.9968Z" fill="#FFB41D" fill-opacity="1.000000" fill-rule="nonzero"/>
	<path id="Path 897" d="M19.8447 19.0745C19.1689 17.7051 16.9233 17.7051 16.2476 19.0745L11.7583 28.1733L1.7168 29.6333C0.963379 29.7434 0.335938 30.2734 0.0986328 30.9985C-0.137695 31.7244 0.0581055 32.52 0.605957 33.0537L7.87256 40.1357L6.15869 50.1353C6.03076 50.8872 6.33936 51.6472 6.95703 52.0964C7.57666 52.5476 8.39453 52.604 9.06836 52.2488L18.0469 47.5271L27.0273 52.2471C27.3203 52.4011 27.6406 52.478 27.96 52.478C28.3755 52.478 28.79 52.3501 29.1392 52.095C29.7568 51.6455 30.0654 50.8855 29.9375 50.1338L28.2231 40.1343L35.4897 33.052C36.0352 32.5186 36.2339 31.7227 35.9976 30.9968C35.7612 30.271 35.1338 29.7419 34.3789 29.6318L24.3379 28.1719L19.8447 19.0745ZM24.667 37.9966C24.1963 38.4575 23.9795 39.1216 24.0898 39.7705L25.2964 46.8044L18.9785 43.4844C18.6885 43.3313 18.3672 43.2554 18.0469 43.2554C17.7261 43.2554 17.4048 43.3313 17.1138 43.4863L10.7964 46.8062L12.0029 39.7725C12.1128 39.1226 11.8989 38.4592 11.4258 37.9983L6.31445 33.0178L13.376 31.9912C14.0293 31.8972 14.5933 31.4863 14.8857 30.8945L18.0464 24.4919L21.2046 30.8921C21.4971 31.4839 22.0601 31.8945 22.7144 31.9888L29.7764 33.0154L24.667 37.9966Z" fill="#FFB41D" fill-opacity="1.000000" fill-rule="nonzero"/>
</svg>
