<svg width="85.509277" height="100.665283" viewBox="0 0 85.5093 100.665" fill="none" xmlns="http://www.w3.org/2000/svg" xmlns:xlink="http://www.w3.org/1999/xlink">
	<desc>
			Created with Pixso.
	</desc>
	<defs/>
	<path id="noun-face-to-face-5676035" d="M70.5308 18.373C82.3311 18.0659 82.2925 0.807373 70.5308 0.500244C58.7305 0.807373 58.7305 18.0659 70.5308 18.373ZM70.5308 4.34375C77.2183 4.45874 77.2183 14.4146 70.5308 14.5293C63.8433 14.4146 63.8433 4.45874 70.5308 4.34375ZM80.1396 21.9858L60.9219 21.9858L56.0786 61.7659L84.9453 61.7659L80.1396 21.9858ZM64.3423 25.8293L76.7192 25.8293L80.6401 57.9224L60.4609 57.9224L64.3423 25.8293ZM72.9902 65.3042L76.834 65.3042L76.834 93.6702C76.834 97.1294 74.0288 99.9734 70.5308 99.9734C67.0327 99.9734 64.2275 97.168 64.2275 93.6702L64.2275 65.3042L68.0713 65.3042L68.0713 93.6702C68.0713 96.8599 72.9526 96.8599 72.9526 93.6702L72.9902 65.3042ZM42.7798 11.8013L46.623 11.8013L46.623 38.3223L0.5 38.7451L0.500977 4.07593L58.1548 4.07593L58.1548 7.91943L4.34473 7.91943L4.34473 34.8247L42.7803 34.479L42.7798 11.8013ZM34.1313 19.335L12.2617 19.335L12.2617 15.4915L34.1313 15.4915L34.1313 19.335ZM12.2617 23.1787L26.4443 23.1787L26.4443 27.0222L12.2617 27.0222L12.2617 23.1787ZM21.1406 48.7771C21.0259 42.012 10.9551 42.012 10.8403 48.7771C10.9551 55.542 21.0259 55.542 21.1406 48.7771ZM14.6836 48.7771C14.6836 47.0859 17.2969 47.0859 17.2969 48.7771C17.2969 50.468 14.6836 50.468 14.6836 48.7771ZM7.53467 77.2197L24.4463 77.2197L24.4463 55.8103L7.53467 55.8103L7.53467 77.2197ZM11.3779 59.6541L20.6025 59.6541L20.6025 73.376L11.3779 73.376L11.3779 59.6541ZM16.2212 80.3708L20.0649 80.3708L20.0649 95.8987C20.0649 98.2437 18.1431 100.165 15.7983 100.165C13.4536 100.165 11.5317 98.2437 11.5317 95.8987L11.5317 80.3708L15.375 80.3708L15.375 95.8987C15.375 96.3604 16.1826 96.3604 16.1826 95.8987L16.2212 80.3708Z" fill="#FFB41D" fill-opacity="1.000000" fill-rule="nonzero"/>
	<path id="noun-face-to-face-5676035" d="M70.5308 0.500244C58.7305 0.807373 58.7305 18.0659 70.5308 18.373C82.3311 18.0659 82.2925 0.807373 70.5308 0.500244ZM70.5308 14.5293C63.8433 14.4146 63.8433 4.45874 70.5308 4.34375C77.2183 4.45874 77.2183 14.4146 70.5308 14.5293ZM60.9219 21.9858L56.0786 61.7659L84.9453 61.7659L80.1396 21.9858L60.9219 21.9858ZM76.7192 25.8293L80.6401 57.9224L60.4609 57.9224L64.3423 25.8293L76.7192 25.8293ZM76.834 65.3042L76.834 93.6702C76.834 97.1294 74.0288 99.9734 70.5308 99.9734C67.0327 99.9734 64.2275 97.168 64.2275 93.6702L64.2275 65.3042L68.0713 65.3042L68.0713 93.6702C68.0713 96.8599 72.9526 96.8599 72.9526 93.6702L72.9902 65.3042L76.834 65.3042ZM46.623 11.8013L46.623 38.3223L0.5 38.7451L0.500977 4.07593L58.1548 4.07593L58.1548 7.91943L4.34473 7.91943L4.34473 34.8247L42.7803 34.479L42.7798 11.8013L46.623 11.8013ZM12.2617 19.335L12.2617 15.4915L34.1313 15.4915L34.1313 19.335L12.2617 19.335ZM26.4443 23.1787L26.4443 27.0222L12.2617 27.0222L12.2617 23.1787L26.4443 23.1787ZM10.8403 48.7771C10.9551 55.542 21.0259 55.542 21.1406 48.7771C21.0259 42.012 10.9551 42.012 10.8403 48.7771ZM17.2969 48.7771C17.2969 50.468 14.6836 50.468 14.6836 48.7771C14.6836 47.0859 17.2969 47.0859 17.2969 48.7771ZM24.4463 77.2197L24.4463 55.8103L7.53467 55.8103L7.53467 77.2197L24.4463 77.2197ZM20.6025 59.6541L20.6025 73.376L11.3779 73.376L11.3779 59.6541L20.6025 59.6541ZM20.0649 80.3708L20.0649 95.8987C20.0649 98.2437 18.1431 100.165 15.7983 100.165C13.4536 100.165 11.5317 98.2437 11.5317 95.8987L11.5317 80.3708L15.375 80.3708L15.375 95.8987C15.375 96.3604 16.1826 96.3604 16.1826 95.8987L16.2212 80.3708L20.0649 80.3708Z" stroke="#FEB41D" stroke-opacity="1.000000" stroke-width="1.000000" stroke-linejoin="round"/>
</svg>
