<svg width="101.862793" height="85.518066" viewBox="0 0 101.863 85.5181" fill="none" xmlns="http://www.w3.org/2000/svg" xmlns:xlink="http://www.w3.org/1999/xlink">
	<desc>
			Created with Pixso.
	</desc>
	<defs/>
	<path id="Path 797" d="M75.2031 72.8777L7.75391 72.8777C3.75391 72.8777 0.5 69.6235 0.5 65.6235L0.5 24.9875C0.5 20.6428 4.03516 17.1077 8.37988 17.1077L12.7495 17.1077C13.6201 17.1077 14.3252 17.8132 14.3252 18.6836L14.3252 45.0125C14.3252 45.7092 14.8916 46.2749 15.5884 46.2749L67.3682 46.2749C68.064 46.2749 68.6299 45.7085 68.6299 45.0125L68.6299 18.6836C68.6299 17.8132 69.335 17.1077 70.2056 17.1077L74.5767 17.1077C78.9214 17.1077 82.4565 20.6428 82.4565 24.9875L82.4565 65.6235C82.458 69.6235 79.2036 72.8777 75.2031 72.8777ZM8.37988 20.26C5.77246 20.26 3.65186 22.3806 3.65186 24.9883L3.65186 65.624C3.65186 67.8853 5.49219 69.7258 7.75342 69.7258L75.2026 69.7258C77.4629 69.7258 79.3047 67.8862 79.3047 65.624L79.3047 24.9883C79.3047 22.3806 77.1836 20.26 74.5762 20.26L71.7812 20.26L71.7812 45.0139C71.7812 47.448 69.8003 49.4287 67.3672 49.4287L15.5874 49.428C13.1528 49.428 11.1719 47.447 11.1719 45.0132L11.1719 20.2593L8.37988 20.26Z" fill="#FFB41D" fill-opacity="1.000000" fill-rule="nonzero"/>
	<path id="Path 797" d="M7.75391 72.8777C3.75391 72.8777 0.5 69.6235 0.5 65.6235L0.5 24.9875C0.5 20.6428 4.03516 17.1077 8.37988 17.1077L12.7495 17.1077C13.6201 17.1077 14.3252 17.8132 14.3252 18.6836L14.3252 45.0125C14.3252 45.7092 14.8916 46.2749 15.5884 46.2749L67.3682 46.2749C68.064 46.2749 68.6299 45.7085 68.6299 45.0125L68.6299 18.6836C68.6299 17.8132 69.335 17.1077 70.2056 17.1077L74.5767 17.1077C78.9214 17.1077 82.4565 20.6428 82.4565 24.9875L82.4565 65.6235C82.458 69.6235 79.2036 72.8777 75.2031 72.8777L7.75391 72.8777ZM3.65186 24.9883L3.65186 65.624C3.65186 67.8853 5.49219 69.7258 7.75342 69.7258L75.2026 69.7258C77.4629 69.7258 79.3047 67.8862 79.3047 65.624L79.3047 24.9883C79.3047 22.3806 77.1836 20.26 74.5762 20.26L71.7812 20.26L71.7812 45.0139C71.7812 47.448 69.8003 49.4287 67.3672 49.4287L15.5874 49.428C13.1528 49.428 11.1719 47.447 11.1719 45.0132L11.1719 20.2593L8.37988 20.26C5.77246 20.26 3.65186 22.3806 3.65186 24.9883Z" stroke="#FEB41D" stroke-opacity="1.000000" stroke-width="1.000000" stroke-linejoin="round"/>
	<path id="Path 798" d="M75.2031 72.8777L7.75391 72.8777C3.75391 72.8777 0.5 69.6235 0.5 65.6235L0.5 59.5908C0.5 58.7207 1.20508 58.0151 2.07568 58.0151L80.8809 58.0151C81.752 58.0151 82.4565 58.7207 82.4565 59.5908L82.4565 65.6235C82.4575 69.6235 79.2031 72.8777 75.2031 72.8777ZM3.65137 61.1675L3.65137 65.6235C3.65137 67.8848 5.4917 69.7256 7.75293 69.7256L75.2021 69.7256C77.4624 69.7256 79.3037 67.8857 79.3037 65.6235L79.3037 61.1675L3.65137 61.1675Z" fill="#FFB41D" fill-opacity="1.000000" fill-rule="nonzero"/>
	<path id="Path 798" d="M7.75391 72.8777C3.75391 72.8777 0.5 69.6235 0.5 65.6235L0.5 59.5908C0.5 58.7207 1.20508 58.0151 2.07568 58.0151L80.8809 58.0151C81.752 58.0151 82.4565 58.7207 82.4565 59.5908L82.4565 65.6235C82.4575 69.6235 79.2031 72.8777 75.2031 72.8777L7.75391 72.8777ZM3.65137 65.6235C3.65137 67.8848 5.4917 69.7256 7.75293 69.7256L75.2021 69.7256C77.4624 69.7256 79.3037 67.8857 79.3037 65.6235L79.3037 61.1675L3.65137 61.1675L3.65137 65.6235Z" stroke="#FEB41D" stroke-opacity="1.000000" stroke-width="1.000000" stroke-linejoin="round"/>
	<path id="Path 799" d="M47.9077 84.2317L35.0493 84.2317C34.1787 84.2317 33.4736 83.5261 33.4736 82.656L33.4736 71.3015C33.4736 70.4314 34.1787 69.7256 35.0493 69.7256L47.9077 69.7256C48.7788 69.7256 49.4839 70.4314 49.4839 71.3015L49.4839 82.656C49.4844 83.5261 48.7798 84.2317 47.9077 84.2317ZM36.625 81.0793L46.332 81.0793L46.332 72.8772L36.625 72.8772L36.625 81.0793Z" fill="#FFB41D" fill-opacity="1.000000" fill-rule="nonzero"/>
	<path id="Path 799" d="M35.0493 84.2317C34.1787 84.2317 33.4736 83.5261 33.4736 82.656L33.4736 71.3015C33.4736 70.4314 34.1787 69.7256 35.0493 69.7256L47.9077 69.7256C48.7788 69.7256 49.4839 70.4314 49.4839 71.3015L49.4839 82.656C49.4844 83.5261 48.7798 84.2317 47.9077 84.2317L35.0493 84.2317ZM46.332 81.0793L46.332 72.8772L36.625 72.8772L36.625 81.0793L46.332 81.0793Z" stroke="#FEB41D" stroke-opacity="1.000000" stroke-width="1.000000" stroke-linejoin="round"/>
	<path id="Path 800" d="M55.6714 84.2317L27.2832 84.2317C26.4126 84.2317 25.7075 83.5261 25.7075 82.656C25.7075 81.7856 26.4126 81.0801 27.2832 81.0801L55.6714 81.0801C56.5425 81.0801 57.2471 81.7856 57.2471 82.656C57.2471 83.5261 56.5425 84.2317 55.6714 84.2317Z" fill="#FFB41D" fill-opacity="1.000000" fill-rule="nonzero"/>
	<path id="Path 800" d="M27.2832 84.2317C26.4126 84.2317 25.7075 83.5261 25.7075 82.656C25.7075 81.7856 26.4126 81.0801 27.2832 81.0801L55.6714 81.0801C56.5425 81.0801 57.2471 81.7856 57.2471 82.656C57.2471 83.5261 56.5425 84.2317 55.6714 84.2317L27.2832 84.2317Z" stroke="#FEB41D" stroke-opacity="1.000000" stroke-width="1.000000" stroke-linejoin="round"/>
	<path id="Path 801" d="M67.3662 49.427L15.5864 49.427C13.1519 49.427 11.1709 47.4458 11.1709 45.012L11.1709 2.07593C11.1709 1.20557 11.876 0.5 12.7466 0.5L35.7974 0.5C38.0938 0.5 40.1455 1.57275 41.4751 3.24341C42.8052 1.57275 44.8564 0.5 47.1528 0.5L70.2036 0.5C71.0742 0.5 71.7793 1.20557 71.7793 2.07593L71.7793 45.012C71.7803 47.446 69.7993 49.427 67.3662 49.427ZM14.3237 3.65283L14.3237 45.012C14.3237 45.7087 14.8901 46.2747 15.5869 46.2747L67.3662 46.2747C68.0625 46.2747 68.6284 45.708 68.6284 45.012L68.6284 3.65283L47.1543 3.65283C44.894 3.65283 43.0527 5.49243 43.0527 7.75391C43.0527 8.62402 42.3477 9.32959 41.4766 9.32959C40.606 9.32959 39.9009 8.62402 39.9009 7.75391C39.9009 5.49341 38.0605 3.65283 35.7988 3.65283L14.3237 3.65283Z" fill="#FFB41D" fill-opacity="1.000000" fill-rule="nonzero"/>
	<path id="Path 801" d="M15.5864 49.427C13.1519 49.427 11.1709 47.4458 11.1709 45.012L11.1709 2.07593C11.1709 1.20557 11.876 0.5 12.7466 0.5L35.7974 0.5C38.0938 0.5 40.1455 1.57275 41.4751 3.24341C42.8052 1.57275 44.8564 0.5 47.1528 0.5L70.2036 0.5C71.0742 0.5 71.7793 1.20557 71.7793 2.07593L71.7793 45.012C71.7803 47.446 69.7993 49.427 67.3662 49.427L15.5864 49.427ZM14.3237 45.012C14.3237 45.7087 14.8901 46.2747 15.5869 46.2747L67.3662 46.2747C68.0625 46.2747 68.6284 45.708 68.6284 45.012L68.6284 3.65283L47.1543 3.65283C44.894 3.65283 43.0527 5.49243 43.0527 7.75391C43.0527 8.62402 42.3477 9.32959 41.4766 9.32959C40.606 9.32959 39.9009 8.62402 39.9009 7.75391C39.9009 5.49341 38.0605 3.65283 35.7988 3.65283L14.3237 3.65283L14.3237 45.012Z" stroke="#FEB41D" stroke-opacity="1.000000" stroke-width="1.000000" stroke-linejoin="round"/>
	<path id="Path 802" d="M41.4775 49.427C40.6064 49.427 39.9014 48.7214 39.9014 47.8513L39.9009 7.75317C39.9009 6.88281 40.606 6.17725 41.4766 6.17725C42.3477 6.17725 43.0527 6.88281 43.0527 7.75317L43.0527 47.8513C43.0532 48.7207 42.3481 49.427 41.4775 49.427Z" fill="#FFB41D" fill-opacity="1.000000" fill-rule="nonzero"/>
	<path id="Path 802" d="M39.9014 47.8513L39.9009 7.75317C39.9009 6.88281 40.606 6.17725 41.4766 6.17725C42.3477 6.17725 43.0527 6.88281 43.0527 7.75317L43.0527 47.8513C43.0532 48.7207 42.3481 49.427 41.4775 49.427C40.6064 49.427 39.9014 48.7214 39.9014 47.8513Z" stroke="#FEB41D" stroke-opacity="1.000000" stroke-width="1.000000" stroke-linejoin="round"/>
	<path id="Path 803" d="M35.2749 14.3484L19.4702 14.3484C18.5996 14.3484 17.8945 13.6428 17.8945 12.7727C17.8945 11.9023 18.5996 11.1968 19.4702 11.1968L35.2749 11.1968C36.146 11.1968 36.8511 11.9023 36.8511 12.7727C36.8511 13.6428 36.146 14.3484 35.2749 14.3484Z" fill="#FFB41D" fill-opacity="1.000000" fill-rule="nonzero"/>
	<path id="Path 803" d="M19.4702 14.3484C18.5996 14.3484 17.8945 13.6428 17.8945 12.7727C17.8945 11.9023 18.5996 11.1968 19.4702 11.1968L35.2749 11.1968C36.146 11.1968 36.8511 11.9023 36.8511 12.7727C36.8511 13.6428 36.146 14.3484 35.2749 14.3484L19.4702 14.3484Z" stroke="#FEB41D" stroke-opacity="1.000000" stroke-width="1.000000" stroke-linejoin="round"/>
	<path id="Path 804" d="M37.5811 21.3813L17.1636 21.3813C16.293 21.3813 15.5879 20.6758 15.5879 19.8057C15.5879 18.9353 16.293 18.2297 17.1636 18.2297L37.5811 18.2297C38.4521 18.2297 39.1572 18.9353 39.1572 19.8057C39.1577 20.6758 38.4521 21.3813 37.5811 21.3813Z" fill="#FFB41D" fill-opacity="1.000000" fill-rule="nonzero"/>
	<path id="Path 804" d="M17.1636 21.3813C16.293 21.3813 15.5879 20.6758 15.5879 19.8057C15.5879 18.9353 16.293 18.2297 17.1636 18.2297L37.5811 18.2297C38.4521 18.2297 39.1572 18.9353 39.1572 19.8057C39.1577 20.6758 38.4521 21.3813 37.5811 21.3813L17.1636 21.3813Z" stroke="#FEB41D" stroke-opacity="1.000000" stroke-width="1.000000" stroke-linejoin="round"/>
	<path id="Path 805" d="M37.5811 28.4143L17.1636 28.4143C16.293 28.4143 15.5879 27.7087 15.5879 26.8384C15.5879 25.9683 16.293 25.2627 17.1636 25.2627L37.5811 25.2627C38.4521 25.2627 39.1572 25.9683 39.1572 26.8384C39.1577 27.7087 38.4521 28.4143 37.5811 28.4143Z" fill="#FFB41D" fill-opacity="1.000000" fill-rule="nonzero"/>
	<path id="Path 805" d="M17.1636 28.4143C16.293 28.4143 15.5879 27.7087 15.5879 26.8384C15.5879 25.9683 16.293 25.2627 17.1636 25.2627L37.5811 25.2627C38.4521 25.2627 39.1572 25.9683 39.1572 26.8384C39.1577 27.7087 38.4521 28.4143 37.5811 28.4143L17.1636 28.4143Z" stroke="#FEB41D" stroke-opacity="1.000000" stroke-width="1.000000" stroke-linejoin="round"/>
	<path id="Path 806" d="M37.5811 35.447L17.1636 35.447C16.293 35.447 15.5879 34.7415 15.5879 33.8713C15.5879 33.001 16.293 32.2954 17.1636 32.2954L37.5811 32.2954C38.4521 32.2954 39.1572 33.001 39.1572 33.8713C39.1577 34.7415 38.4521 35.447 37.5811 35.447Z" fill="#FFB41D" fill-opacity="1.000000" fill-rule="nonzero"/>
	<path id="Path 806" d="M17.1636 35.447C16.293 35.447 15.5879 34.7415 15.5879 33.8713C15.5879 33.001 16.293 32.2954 17.1636 32.2954L37.5811 32.2954C38.4521 32.2954 39.1572 33.001 39.1572 33.8713C39.1577 34.7415 38.4521 35.447 37.5811 35.447L17.1636 35.447Z" stroke="#FEB41D" stroke-opacity="1.000000" stroke-width="1.000000" stroke-linejoin="round"/>
	<path id="Path 807" d="M37.5811 42.4802L17.1636 42.4802C16.293 42.4802 15.5879 41.7747 15.5879 40.9045C15.5879 40.0342 16.293 39.3286 17.1636 39.3286L37.5811 39.3286C38.4521 39.3286 39.1572 40.0342 39.1572 40.9045C39.1577 41.7747 38.4521 42.4802 37.5811 42.4802Z" fill="#FFB41D" fill-opacity="1.000000" fill-rule="nonzero"/>
	<path id="Path 807" d="M17.1636 42.4802C16.293 42.4802 15.5879 41.7747 15.5879 40.9045C15.5879 40.0342 16.293 39.3286 17.1636 39.3286L37.5811 39.3286C38.4521 39.3286 39.1572 40.0342 39.1572 40.9045C39.1577 41.7747 38.4521 42.4802 37.5811 42.4802L17.1636 42.4802Z" stroke="#FEB41D" stroke-opacity="1.000000" stroke-width="1.000000" stroke-linejoin="round"/>
	<path id="Path 808" d="M63.4854 14.3484L47.6792 14.3484C46.8086 14.3484 46.1035 13.6428 46.1035 12.7727C46.1035 11.9023 46.8086 11.1968 47.6792 11.1968L63.4854 11.1968C64.3564 11.1968 65.0615 11.9023 65.0615 12.7727C65.0615 13.6428 64.3564 14.3484 63.4854 14.3484Z" fill="#FFB41D" fill-opacity="1.000000" fill-rule="nonzero"/>
	<path id="Path 808" d="M47.6792 14.3484C46.8086 14.3484 46.1035 13.6428 46.1035 12.7727C46.1035 11.9023 46.8086 11.1968 47.6792 11.1968L63.4854 11.1968C64.3564 11.1968 65.0615 11.9023 65.0615 12.7727C65.0615 13.6428 64.3564 14.3484 63.4854 14.3484L47.6792 14.3484Z" stroke="#FEB41D" stroke-opacity="1.000000" stroke-width="1.000000" stroke-linejoin="round"/>
	<path id="Path 809" d="M65.791 21.3813L45.3735 21.3813C44.5029 21.3813 43.7979 20.6758 43.7979 19.8057C43.7979 18.9353 44.5029 18.2297 45.3735 18.2297L65.791 18.2297C66.6621 18.2297 67.3672 18.9353 67.3672 19.8057C67.3672 20.6758 66.6621 21.3813 65.791 21.3813Z" fill="#FFB41D" fill-opacity="1.000000" fill-rule="nonzero"/>
	<path id="Path 809" d="M45.3735 21.3813C44.5029 21.3813 43.7979 20.6758 43.7979 19.8057C43.7979 18.9353 44.5029 18.2297 45.3735 18.2297L65.791 18.2297C66.6621 18.2297 67.3672 18.9353 67.3672 19.8057C67.3672 20.6758 66.6621 21.3813 65.791 21.3813L45.3735 21.3813Z" stroke="#FEB41D" stroke-opacity="1.000000" stroke-width="1.000000" stroke-linejoin="round"/>
	<path id="Path 810" d="M65.791 28.4143L45.3735 28.4143C44.5029 28.4143 43.7979 27.7087 43.7979 26.8384C43.7979 25.9683 44.5029 25.2627 45.3735 25.2627L65.791 25.2627C66.6621 25.2627 67.3672 25.9683 67.3672 26.8384C67.3672 27.7087 66.6621 28.4143 65.791 28.4143Z" fill="#FFB41D" fill-opacity="1.000000" fill-rule="nonzero"/>
	<path id="Path 810" d="M45.3735 28.4143C44.5029 28.4143 43.7979 27.7087 43.7979 26.8384C43.7979 25.9683 44.5029 25.2627 45.3735 25.2627L65.791 25.2627C66.6621 25.2627 67.3672 25.9683 67.3672 26.8384C67.3672 27.7087 66.6621 28.4143 65.791 28.4143L45.3735 28.4143Z" stroke="#FEB41D" stroke-opacity="1.000000" stroke-width="1.000000" stroke-linejoin="round"/>
	<path id="Path 811" d="M65.791 35.447L45.3735 35.447C44.5029 35.447 43.7979 34.7415 43.7979 33.8713C43.7979 33.001 44.5029 32.2954 45.3735 32.2954L65.791 32.2954C66.6621 32.2954 67.3672 33.001 67.3672 33.8713C67.3672 34.7415 66.6621 35.447 65.791 35.447Z" fill="#FFB41D" fill-opacity="1.000000" fill-rule="nonzero"/>
	<path id="Path 811" d="M45.3735 35.447C44.5029 35.447 43.7979 34.7415 43.7979 33.8713C43.7979 33.001 44.5029 32.2954 45.3735 32.2954L65.791 32.2954C66.6621 32.2954 67.3672 33.001 67.3672 33.8713C67.3672 34.7415 66.6621 35.447 65.791 35.447L45.3735 35.447Z" stroke="#FEB41D" stroke-opacity="1.000000" stroke-width="1.000000" stroke-linejoin="round"/>
	<path id="Path 812" d="M65.791 42.4802L45.3735 42.4802C44.5029 42.4802 43.7979 41.7747 43.7979 40.9045C43.7979 40.0342 44.5029 39.3286 45.3735 39.3286L65.791 39.3286C66.6621 39.3286 67.3672 40.0342 67.3672 40.9045C67.3672 41.7747 66.6621 42.4802 65.791 42.4802Z" fill="#FFB41D" fill-opacity="1.000000" fill-rule="nonzero"/>
	<path id="Path 812" d="M45.3735 42.4802C44.5029 42.4802 43.7979 41.7747 43.7979 40.9045C43.7979 40.0342 44.5029 39.3286 45.3735 39.3286L65.791 39.3286C66.6621 39.3286 67.3672 40.0342 67.3672 40.9045C67.3672 41.7747 66.6621 42.4802 65.791 42.4802L45.3735 42.4802Z" stroke="#FEB41D" stroke-opacity="1.000000" stroke-width="1.000000" stroke-linejoin="round"/>
	<path id="Path 813" d="M93.7334 68.0857C92.8628 68.0857 92.1577 67.3799 92.1577 66.5098L92.1577 48.7954C92.1577 47.7676 91.3218 46.9316 90.2939 46.9316L80.8794 46.9316C80.0088 46.9316 79.3037 46.2261 79.3037 45.356C79.3037 44.4856 80.0088 43.78 80.8794 43.78L90.2939 43.78C93.0601 43.78 95.3101 46.0303 95.3101 48.7961L95.3101 66.5105C95.3096 67.3809 94.6045 68.0857 93.7334 68.0857Z" fill="#FFB41D" fill-opacity="1.000000" fill-rule="nonzero"/>
	<path id="Path 813" d="M92.1577 66.5098L92.1577 48.7954C92.1577 47.7676 91.3218 46.9316 90.2939 46.9316L80.8794 46.9316C80.0088 46.9316 79.3037 46.2261 79.3037 45.356C79.3037 44.4856 80.0088 43.78 80.8794 43.78L90.2939 43.78C93.0601 43.78 95.3101 46.0303 95.3101 48.7961L95.3101 66.5105C95.3096 67.3809 94.6045 68.0857 93.7334 68.0857C92.8628 68.0857 92.1577 67.3799 92.1577 66.5098Z" stroke="#FEB41D" stroke-opacity="1.000000" stroke-width="1.000000" stroke-linejoin="round"/>
	<path id="Path 814" d="M93.7334 85.0181C89.5254 85.0181 86.1025 81.5952 86.1025 77.3879L86.1025 72.7688C86.1025 68.5618 89.5254 65.1387 93.7334 65.1387C97.9399 65.1394 101.363 68.5625 101.363 72.7688L101.363 77.3879C101.363 81.5952 97.9399 85.0181 93.7334 85.0181ZM93.7334 68.291C91.2637 68.291 89.2549 70.2998 89.2549 72.7688L89.2549 77.3879C89.2549 79.8569 91.2637 81.8657 93.7334 81.8657C96.2017 81.8657 98.2104 79.8569 98.2104 77.3879L98.2104 72.7688C98.2104 70.2998 96.2021 68.291 93.7334 68.291Z" fill="#FFB41D" fill-opacity="1.000000" fill-rule="nonzero"/>
	<path id="Path 814" d="M86.1025 77.3879L86.1025 72.7688C86.1025 68.5618 89.5254 65.1387 93.7334 65.1387C97.9399 65.1394 101.363 68.5625 101.363 72.7688L101.363 77.3879C101.363 81.5952 97.9399 85.0181 93.7334 85.0181C89.5254 85.0181 86.1025 81.5952 86.1025 77.3879ZM89.2549 72.7688L89.2549 77.3879C89.2549 79.8569 91.2637 81.8657 93.7334 81.8657C96.2017 81.8657 98.2104 79.8569 98.2104 77.3879L98.2104 72.7688C98.2104 70.2998 96.2021 68.291 93.7334 68.291C91.2637 68.291 89.2549 70.2998 89.2549 72.7688Z" stroke="#FEB41D" stroke-opacity="1.000000" stroke-width="1.000000" stroke-linejoin="round"/>
	<path id="Path 815" d="M99.7866 75.2659L87.6865 75.2659C86.8159 75.2659 86.1108 74.5603 86.1108 73.6899C86.1108 72.8198 86.8159 72.1143 87.6865 72.1143L99.7866 72.1135C100.657 72.1135 101.362 72.8193 101.362 73.6895C101.363 74.5603 100.658 75.2659 99.7866 75.2659Z" fill="#FFB41D" fill-opacity="1.000000" fill-rule="nonzero"/>
	<path id="Path 815" d="M87.6865 75.2659C86.8159 75.2659 86.1108 74.5603 86.1108 73.6899C86.1108 72.8198 86.8159 72.1143 87.6865 72.1143L99.7866 72.1135C100.657 72.1135 101.362 72.8193 101.362 73.6895C101.363 74.5603 100.658 75.2659 99.7866 75.2659L87.6865 75.2659Z" stroke="#FEB41D" stroke-opacity="1.000000" stroke-width="1.000000" stroke-linejoin="round"/>
	<path id="Path 816" d="M93.7334 75.907C92.8628 75.907 92.1577 75.2014 92.1577 74.3313L92.1577 66.7161C92.1577 65.8459 92.8628 65.1401 93.7334 65.1401C94.6045 65.1401 95.3096 65.8459 95.3096 66.7161L95.3096 74.3313C95.3096 75.2014 94.6045 75.907 93.7334 75.907Z" fill="#FFB41D" fill-opacity="1.000000" fill-rule="nonzero"/>
	<path id="Path 816" d="M92.1577 74.3313L92.1577 66.7161C92.1577 65.8459 92.8628 65.1401 93.7334 65.1401C94.6045 65.1401 95.3096 65.8459 95.3096 66.7161L95.3096 74.3313C95.3096 75.2014 94.6045 75.907 93.7334 75.907C92.8628 75.907 92.1577 75.2014 92.1577 74.3313Z" stroke="#FEB41D" stroke-opacity="1.000000" stroke-width="1.000000" stroke-linejoin="round"/>
</svg>
