<svg width="91.941406" height="94.518311" viewBox="0 0 91.9414 94.5183" fill="none" xmlns="http://www.w3.org/2000/svg" xmlns:xlink="http://www.w3.org/1999/xlink">
	<desc>
			Created with Pixso.
	</desc>
	<defs/>
	<path id="Path 845" d="M65.4814 30.6997L73.8584 23.6113L69.7341 23.6113L65.4814 30.6997Z" fill="#FFB41D" fill-opacity="1.000000" fill-rule="nonzero"/>
	<path id="Path 845" d="M73.8584 23.6113L69.7341 23.6113L65.4814 30.6997L73.8584 23.6113Z" stroke="#FEB41D" stroke-opacity="1.000000" stroke-width="1.000000" stroke-linejoin="bevel"/>
	<path id="Path 846" d="M61.4058 23.6614L61.4058 31.3132L65.9966 23.6614L61.4058 23.6614Z" fill="#FFB41D" fill-opacity="1.000000" fill-rule="nonzero"/>
	<path id="Path 846" d="M61.4058 31.3132L65.9966 23.6614L61.4058 23.6614L61.4058 31.3132Z" stroke="#FEB41D" stroke-opacity="1.000000" stroke-width="1.000000" stroke-linejoin="bevel"/>
	<path id="Path 847" d="M75.2629 20L73.3076 16.7515L71.3521 20L75.2629 20Z" fill="#FFB41D" fill-opacity="1.000000" fill-rule="nonzero"/>
	<path id="Path 847" d="M73.3076 16.7515L71.3521 20L75.2629 20L73.3076 16.7515Z" stroke="#FEB41D" stroke-opacity="1.000000" stroke-width="1.000000" stroke-linejoin="bevel"/>
	<path id="Path 848" d="M45.5732 23.6021L53.8137 30.5742L49.6931 23.6021L45.5732 23.6021Z" fill="#FFB41D" fill-opacity="1.000000" fill-rule="nonzero"/>
	<path id="Path 848" d="M53.8137 30.5742L49.6931 23.6021L45.5732 23.6021L53.8137 30.5742Z" stroke="#FEB41D" stroke-opacity="1.000000" stroke-width="1.000000" stroke-linejoin="bevel"/>
	<path id="Path 849" d="M70.6609 15.6685L66.75 15.6685L68.7058 18.9175L70.6609 15.6685Z" fill="#FFB41D" fill-opacity="1.000000" fill-rule="nonzero"/>
	<path id="Path 849" d="M66.75 15.6685L68.7058 18.9175L70.6609 15.6685L66.75 15.6685Z" stroke="#FEB41D" stroke-opacity="1.000000" stroke-width="1.000000" stroke-linejoin="bevel"/>
	<path id="Path 850" d="M57.6531 31.4636L57.6531 23.6736L53.0498 23.6736L57.6531 31.4636Z" fill="#FFB41D" fill-opacity="1.000000" fill-rule="nonzero"/>
	<path id="Path 850" d="M57.6531 23.6736L53.0498 23.6736L57.6531 31.4636L57.6531 23.6736Z" stroke="#FEB41D" stroke-opacity="1.000000" stroke-width="1.000000" stroke-linejoin="bevel"/>
	<path id="Path 851" d="M87.3057 29.7278L84.3496 29.7278C84.5483 28.437 84.6501 27.1318 84.6501 25.8308C84.6501 11.8633 73.2871 0.5 59.3193 0.5C45.3516 0.5 33.9885 11.863 33.9885 25.8308C33.9885 27.1304 34.0903 28.4355 34.2891 29.7278L4.63623 29.7278C2.35596 29.7278 0.5 31.5837 0.5 33.865L0.5 41.7959C0.5 43.5525 1.61206 45.0452 3.16602 45.6389L3.16602 88.8105C3.16602 91.6821 5.50195 94.0183 8.37305 94.0183L83.5779 94.0183C86.4497 94.0183 88.7856 91.6824 88.7856 88.8105L88.7866 45.6348C90.335 45.0378 91.4414 43.5476 91.4414 41.7949L91.4414 33.864C91.4414 31.583 89.5859 29.7278 87.3057 29.7278ZM40.0115 21.8843C40.0186 21.8247 40.0354 21.6682 40.0513 21.6101C40.0608 21.584 40.106 21.479 40.1179 21.4536C40.1355 21.4146 40.1458 21.3733 40.168 21.3359L44.6406 13.7876C44.8457 13.4417 45.2183 13.2288 45.6206 13.2288L73.0166 13.2288C73.4189 13.2288 73.7915 13.4409 73.9966 13.7876L78.4619 21.3225C78.4841 21.3599 78.5024 21.4146 78.52 21.4536C78.5249 21.4663 78.563 21.5505 78.5676 21.5632C78.5845 21.6228 78.6067 21.7317 78.6138 21.793C78.6138 21.7993 78.6296 21.8972 78.6296 21.9036C78.6304 21.9631 78.6177 22.022 78.6089 22.0808C78.6035 22.1196 78.6042 22.1594 78.5947 22.1982C78.5859 22.2271 78.5542 22.3 78.543 22.3286C78.5239 22.3787 78.5105 22.4304 78.4834 22.4773C78.4651 22.5083 78.4231 22.5569 78.4016 22.5862C78.3682 22.6316 78.3389 22.6809 78.2998 22.7197L60.0544 38.1624C60.0298 38.1799 59.9243 38.2585 59.8979 38.2737C59.856 38.2991 59.8098 38.3103 59.7651 38.3293C59.6509 38.366 59.4353 38.4319 59.3193 38.4319C59.2024 38.4312 59.0833 38.4072 58.9729 38.3716C58.8853 38.335 58.7104 38.25 58.6343 38.1919L40.4111 22.7866C40.3721 22.7468 40.2712 22.6316 40.2378 22.5862C40.2329 22.5791 40.1614 22.4878 40.1575 22.4805C40.1296 22.4312 40.1138 22.374 40.0933 22.3215C40.0884 22.3071 40.0493 22.219 40.0454 22.2048C40.0352 22.1633 40.0342 22.1157 40.0288 22.0735C40.0208 22.0171 40.0107 21.9417 40.0115 21.8843ZM29.0071 32.0066L34.7466 32.0066C34.8174 32.2896 34.9062 32.5654 34.9873 32.845C35.0405 33.0288 35.0884 33.2139 35.1455 33.396C35.3435 34.0271 35.5596 34.6509 35.8062 35.2629C35.8298 35.3232 35.8594 35.3806 35.8838 35.4402C36.1104 35.991 36.3577 36.5322 36.6223 37.0649C36.7146 37.2507 36.814 37.4329 36.9109 37.6165C37.1287 38.0298 37.3577 38.4358 37.5984 38.8364C37.7097 39.0217 37.8193 39.2061 37.9353 39.3882C38.2231 39.8403 38.5259 40.2832 38.8423 40.7163C38.9163 40.8171 38.9836 40.9229 39.0586 41.0229C39.4504 41.5437 39.8652 42.0483 40.2969 42.5381C40.4248 42.6836 40.5608 42.821 40.6919 42.9634C40.9001 43.189 41.1021 43.4202 41.3181 43.6389L29.0071 43.6414L29.0071 32.0066ZM4.63672 43.6414C3.61206 43.6414 2.77905 42.8132 2.77905 41.7949L2.77905 33.864C2.77905 32.8396 3.61206 32.0066 4.63672 32.0066L10.5249 32.0066L10.5249 43.6414L4.63672 43.6414ZM86.5076 88.8091C86.5076 90.4233 85.1938 91.738 83.5786 91.738L8.37354 91.738C6.75928 91.738 5.44531 90.4243 5.44531 88.8091L5.44531 45.9202L11.6528 45.9202L12.342 45.9226L12.342 61.5508C12.3269 61.8679 12.4453 62.2549 12.6917 62.4917L14.783 64.5027C15.2231 64.9263 15.9194 64.928 16.3623 64.5034L17.6658 63.2507L18.9668 64.5027C19.1877 64.7148 19.4724 64.8206 19.7568 64.8206C20.0415 64.8206 20.3252 64.7148 20.5461 64.5034L21.8528 63.2493L23.1628 64.5034C23.603 64.9263 24.2986 64.9263 24.7397 64.5034L26.8379 62.4927C27.0859 62.2556 27.1909 61.9346 27.1758 61.6174L27.1892 45.9226L27.8672 45.9226L43.9077 45.9204C44.1494 46.1072 44.4036 46.2708 44.6509 46.448C44.9226 46.6436 45.1904 46.8455 45.4688 47.0291C45.7827 47.2366 46.1069 47.4233 46.429 47.615C46.7063 47.781 46.9797 47.9551 47.2627 48.1094C47.5972 48.292 47.9407 48.4519 48.2825 48.6187C48.5647 48.7563 48.8428 48.9041 49.1296 49.0305C49.4851 49.187 49.8491 49.3206 50.2107 49.4604C50.4951 49.5701 50.7749 49.6909 51.0627 49.7903C51.4404 49.9207 51.8267 50.0249 52.2104 50.137C52.4919 50.2188 52.77 50.3132 53.0547 50.3857C53.4631 50.489 53.8789 50.5654 54.2937 50.6479C54.5632 50.7019 54.8279 50.7695 55.0996 50.8142C55.564 50.8911 56.0344 50.938 56.5049 50.9897C56.7339 51.0151 56.9595 51.0542 57.1902 51.0732C57.8936 51.1304 58.604 51.1606 59.3193 51.1606C60.0349 51.1606 60.7446 51.1304 61.449 51.0732C61.6841 51.0542 61.9138 51.0137 62.1475 50.9883C62.6133 50.9373 63.0791 50.8904 63.5386 50.8142C63.8191 50.7671 64.0933 50.698 64.3716 50.6423C64.7761 50.5613 65.1831 50.4873 65.582 50.3865C65.8777 50.3118 66.1663 50.2141 66.4587 50.1282C66.8315 50.0193 67.2065 49.9185 67.573 49.792C67.8718 49.6887 68.1628 49.5637 68.4578 49.4495C68.8081 49.3135 69.1611 49.1848 69.5054 49.033C69.8018 48.9019 70.0896 48.75 70.3821 48.6069C70.7134 48.4446 71.0474 48.2898 71.3723 48.1125C71.6609 47.9551 71.939 47.7778 72.2219 47.6086C72.5391 47.4185 72.8594 47.2349 73.1694 47.0298C73.4436 46.8486 73.7075 46.6492 73.9761 46.4568C74.2273 46.2764 74.4866 46.1104 74.7329 45.9194L86.509 45.9194L86.5076 88.8091ZM89.1616 41.7959C89.1616 42.814 88.3286 43.6421 87.304 43.6421L77.321 43.6421C77.5459 43.4148 77.7566 43.1748 77.9719 42.9404C78.0913 42.8108 78.2151 42.6853 78.3313 42.5532C78.7683 42.0574 79.189 41.5471 79.5854 41.0193C79.6499 40.9333 79.708 40.8428 79.7715 40.7554C80.0989 40.3079 80.4114 39.8501 80.7085 39.3826C80.8208 39.207 80.9263 39.0281 81.0337 38.8501C81.2786 38.4431 81.5115 38.0298 81.7324 37.6101C81.8269 37.4314 81.9231 37.2534 82.0129 37.072C82.2815 36.5308 82.5344 35.9807 82.7642 35.4204C82.7856 35.3689 82.8101 35.3196 82.8308 35.2678C83.0781 34.6533 83.2959 34.0264 83.4937 33.3921C83.5493 33.2148 83.5962 33.0352 83.6472 32.8562C83.729 32.5732 83.8188 32.2935 83.8904 32.0083L87.3027 32.0083C88.3271 32.0083 89.1602 32.842 89.1602 33.8657L89.1616 41.7959Z" fill="#FFB41D" fill-opacity="1.000000" fill-rule="nonzero"/>
	<path id="Path 851" d="M84.3496 29.7278C84.5483 28.437 84.6501 27.1318 84.6501 25.8308C84.6501 11.8633 73.2871 0.5 59.3193 0.5C45.3516 0.5 33.9885 11.863 33.9885 25.8308C33.9885 27.1304 34.0903 28.4355 34.2891 29.7278L4.63623 29.7278C2.35596 29.7278 0.5 31.5837 0.5 33.865L0.5 41.7959C0.5 43.5525 1.61206 45.0452 3.16602 45.6389L3.16602 88.8105C3.16602 91.6821 5.50195 94.0183 8.37305 94.0183L83.5779 94.0183C86.4497 94.0183 88.7856 91.6824 88.7856 88.8105L88.7866 45.6348C90.335 45.0378 91.4414 43.5476 91.4414 41.7949L91.4414 33.864C91.4414 31.583 89.5859 29.7278 87.3057 29.7278L84.3496 29.7278ZM40.0513 21.6101C40.0608 21.584 40.106 21.479 40.1179 21.4536C40.1355 21.4146 40.1458 21.3733 40.168 21.3359L44.6406 13.7876C44.8457 13.4417 45.2183 13.2288 45.6206 13.2288L73.0166 13.2288C73.4189 13.2288 73.7915 13.4409 73.9966 13.7876L78.4619 21.3225C78.4841 21.3599 78.5024 21.4146 78.52 21.4536C78.5249 21.4663 78.563 21.5505 78.5676 21.5632C78.5845 21.6228 78.6067 21.7317 78.6138 21.793C78.6138 21.7993 78.6296 21.8972 78.6296 21.9036C78.6304 21.9631 78.6177 22.022 78.6089 22.0808C78.6035 22.1196 78.6042 22.1594 78.5947 22.1982C78.5859 22.2271 78.5542 22.3 78.543 22.3286C78.5239 22.3787 78.5105 22.4304 78.4834 22.4773C78.4651 22.5083 78.4231 22.5569 78.4016 22.5862C78.3682 22.6316 78.3389 22.6809 78.2998 22.7197L60.0544 38.1624C60.0298 38.1799 59.9243 38.2585 59.8979 38.2737C59.856 38.2991 59.8098 38.3103 59.7651 38.3293C59.6509 38.366 59.4353 38.4319 59.3193 38.4319C59.2024 38.4312 59.0833 38.4072 58.9729 38.3716C58.8853 38.335 58.7104 38.25 58.6343 38.1919L40.4111 22.7866C40.3721 22.7468 40.2712 22.6316 40.2378 22.5862C40.2329 22.5791 40.1614 22.4878 40.1575 22.4805C40.1296 22.4312 40.1138 22.374 40.0933 22.3215C40.0884 22.3071 40.0493 22.219 40.0454 22.2048C40.0352 22.1633 40.0342 22.1157 40.0288 22.0735C40.0208 22.0171 40.0107 21.9417 40.0115 21.8843C40.0186 21.8247 40.0354 21.6682 40.0513 21.6101ZM34.7466 32.0066C34.8174 32.2896 34.9062 32.5654 34.9873 32.845C35.0405 33.0288 35.0884 33.2139 35.1455 33.396C35.3435 34.0271 35.5596 34.6509 35.8062 35.2629C35.8298 35.3232 35.8594 35.3806 35.8838 35.4402C36.1104 35.991 36.3577 36.5322 36.6223 37.0649C36.7146 37.2507 36.814 37.4329 36.9109 37.6165C37.1287 38.0298 37.3577 38.4358 37.5984 38.8364C37.7097 39.0217 37.8193 39.2061 37.9353 39.3882C38.2231 39.8403 38.5259 40.2832 38.8423 40.7163C38.9163 40.8171 38.9836 40.9229 39.0586 41.0229C39.4504 41.5437 39.8652 42.0483 40.2969 42.5381C40.4248 42.6836 40.5608 42.821 40.6919 42.9634C40.9001 43.189 41.1021 43.4202 41.3181 43.6389L29.0071 43.6414L29.0071 32.0066L34.7466 32.0066ZM2.77905 41.7949L2.77905 33.864C2.77905 32.8396 3.61206 32.0066 4.63672 32.0066L10.5249 32.0066L10.5249 43.6414L4.63672 43.6414C3.61206 43.6414 2.77905 42.8132 2.77905 41.7949ZM83.5786 91.738L8.37354 91.738C6.75928 91.738 5.44531 90.4243 5.44531 88.8091L5.44531 45.9202L11.6528 45.9202L12.342 45.9226L12.342 61.5508C12.3269 61.8679 12.4453 62.2549 12.6917 62.4917L14.783 64.5027C15.2231 64.9263 15.9194 64.928 16.3623 64.5034L17.6658 63.2507L18.9668 64.5027C19.1877 64.7148 19.4724 64.8206 19.7568 64.8206C20.0415 64.8206 20.3252 64.7148 20.5461 64.5034L21.8528 63.2493L23.1628 64.5034C23.603 64.9263 24.2986 64.9263 24.7397 64.5034L26.8379 62.4927C27.0859 62.2556 27.1909 61.9346 27.1758 61.6174L27.1892 45.9226L27.8672 45.9226L43.9077 45.9204C44.1494 46.1072 44.4036 46.2708 44.6509 46.448C44.9226 46.6436 45.1904 46.8455 45.4688 47.0291C45.7827 47.2366 46.1069 47.4233 46.429 47.615C46.7063 47.781 46.9797 47.9551 47.2627 48.1094C47.5972 48.292 47.9407 48.4519 48.2825 48.6187C48.5647 48.7563 48.8428 48.9041 49.1296 49.0305C49.4851 49.187 49.8491 49.3206 50.2107 49.4604C50.4951 49.5701 50.7749 49.6909 51.0627 49.7903C51.4404 49.9207 51.8267 50.0249 52.2104 50.137C52.4919 50.2188 52.77 50.3132 53.0547 50.3857C53.4631 50.489 53.8789 50.5654 54.2937 50.6479C54.5632 50.7019 54.8279 50.7695 55.0996 50.8142C55.564 50.8911 56.0344 50.938 56.5049 50.9897C56.7339 51.0151 56.9595 51.0542 57.1902 51.0732C57.8936 51.1304 58.604 51.1606 59.3193 51.1606C60.0349 51.1606 60.7446 51.1304 61.449 51.0732C61.6841 51.0542 61.9138 51.0137 62.1475 50.9883C62.6133 50.9373 63.0791 50.8904 63.5386 50.8142C63.8191 50.7671 64.0933 50.698 64.3716 50.6423C64.7761 50.5613 65.1831 50.4873 65.582 50.3865C65.8777 50.3118 66.1663 50.2141 66.4587 50.1282C66.8315 50.0193 67.2065 49.9185 67.573 49.792C67.8718 49.6887 68.1628 49.5637 68.4578 49.4495C68.8081 49.3135 69.1611 49.1848 69.5054 49.033C69.8018 48.9019 70.0896 48.75 70.3821 48.6069C70.7134 48.4446 71.0474 48.2898 71.3723 48.1125C71.6609 47.9551 71.939 47.7778 72.2219 47.6086C72.5391 47.4185 72.8594 47.2349 73.1694 47.0298C73.4436 46.8486 73.7075 46.6492 73.9761 46.4568C74.2273 46.2764 74.4866 46.1104 74.7329 45.9194L86.509 45.9194L86.5076 88.8091C86.5076 90.4233 85.1938 91.738 83.5786 91.738ZM87.304 43.6421L77.321 43.6421C77.5459 43.4148 77.7566 43.1748 77.9719 42.9404C78.0913 42.8108 78.2151 42.6853 78.3313 42.5532C78.7683 42.0574 79.189 41.5471 79.5854 41.0193C79.6499 40.9333 79.708 40.8428 79.7715 40.7554C80.0989 40.3079 80.4114 39.8501 80.7085 39.3826C80.8208 39.207 80.9263 39.0281 81.0337 38.8501C81.2786 38.4431 81.5115 38.0298 81.7324 37.6101C81.8269 37.4314 81.9231 37.2534 82.0129 37.072C82.2815 36.5308 82.5344 35.9807 82.7642 35.4204C82.7856 35.3689 82.8101 35.3196 82.8308 35.2678C83.0781 34.6533 83.2959 34.0264 83.4937 33.3921C83.5493 33.2148 83.5962 33.0352 83.6472 32.8562C83.729 32.5732 83.8188 32.2935 83.8904 32.0083L87.3027 32.0083C88.3271 32.0083 89.1602 32.842 89.1602 33.8657L89.1616 41.7959C89.1616 42.814 88.3286 43.6421 87.304 43.6421Z" stroke="#FEB41D" stroke-opacity="1.000000" stroke-width="1.000000" stroke-linejoin="bevel"/>
	<path id="Path 852" d="M45.6865 16.75L43.7314 19.9985L47.6416 19.9985L45.6865 16.75Z" fill="#FFB41D" fill-opacity="1.000000" fill-rule="nonzero"/>
	<path id="Path 852" d="M43.7314 19.9985L47.6416 19.9985L45.6865 16.75L43.7314 19.9985Z" stroke="#FEB41D" stroke-opacity="1.000000" stroke-width="1.000000" stroke-linejoin="bevel"/>
	<path id="Path 853" d="M66.0564 20L64.1008 16.7515L62.145 20L66.0564 20Z" fill="#FFB41D" fill-opacity="1.000000" fill-rule="nonzero"/>
	<path id="Path 853" d="M64.1008 16.7515L62.145 20L66.0564 20L64.1008 16.7515Z" stroke="#FEB41D" stroke-opacity="1.000000" stroke-width="1.000000" stroke-linejoin="bevel"/>
	<path id="Path 854" d="M52.2463 15.6685L48.3354 15.6685L50.2905 18.9175L52.2463 15.6685Z" fill="#FFB41D" fill-opacity="1.000000" fill-rule="nonzero"/>
	<path id="Path 854" d="M48.3354 15.6685L50.2905 18.9175L52.2463 15.6685L48.3354 15.6685Z" stroke="#FEB41D" stroke-opacity="1.000000" stroke-width="1.000000" stroke-linejoin="bevel"/>
	<path id="Path 855" d="M56.8503 20L54.8953 16.7515L52.9395 20L56.8503 20Z" fill="#FFB41D" fill-opacity="1.000000" fill-rule="nonzero"/>
	<path id="Path 855" d="M54.8953 16.7515L52.9395 20L56.8503 20L54.8953 16.7515Z" stroke="#FEB41D" stroke-opacity="1.000000" stroke-width="1.000000" stroke-linejoin="bevel"/>
	<path id="Path 856" d="M61.4524 15.6685L57.5415 15.6685L59.4966 18.9175L61.4524 15.6685Z" fill="#FFB41D" fill-opacity="1.000000" fill-rule="nonzero"/>
	<path id="Path 856" d="M57.5415 15.6685L59.4966 18.9175L61.4524 15.6685L57.5415 15.6685Z" stroke="#FEB41D" stroke-opacity="1.000000" stroke-width="1.000000" stroke-linejoin="bevel"/>
</svg>
