<svg id="parsons_desktop" xmlns="http://www.w3.org/2000/svg" width="384" height="81.502" viewBox="0 0 384 81.502">
  <path id="Path_331" data-name="Path 331" d="M4,25.143V20H40v5.143" transform="translate(2.857 14.286)"/>
  <path id="Path_332" data-name="Path 332" d="M25.714,13.714h12v6.857h5.143V0H37.714V8.571h-12V0H20.571V20.571h5.143ZM60,16.457H51.429V13.029h6.857V8.571H51.429V5.143H60V0H46.286V20.571H60ZM73.714,7.886h.857L86.743,20.743h5.829V0H87.429V13.2h-.857L74.571,0h-6V20.571h5.143Zm36,8.571H99.429V13.029H108V8.571H99.429V5.143h10.286V0H94.286V20.571h15.429Zm15.6,4.114L129.6,4.629h1.371l4.8,15.943h9.086l6-20.571h-5.829l-3.943,15.771h-1.2L135.086,0h-9.429l-4.114,15.771h-1.2L115.543,0h-5.829l6.514,20.571Zm41.829-5.314c0,1.029-.514,1.714-2.914,1.714a16.769,16.769,0,0,1-7.029-1.543l-.171,4.629a19.925,19.925,0,0,0,7.2,1.371c5.486,0,8.057-3.257,8.057-6.857,0-6.857-10.629-4.971-10.629-8.4,0-1.029,1.029-1.714,2.743-1.714A13.852,13.852,0,0,1,170.743,6l1.029-4.457A18.15,18.15,0,0,0,164.571,0c-4.457,0-7.886,2.4-7.886,6.686C156.686,14.057,167.143,12.171,167.143,15.257Zm16.8,6.171a13.763,13.763,0,0,0,5.314-.686v-4.8a10.884,10.884,0,0,1-4.629.686,5.723,5.723,0,0,1-6.171-5.143v-.857a5.342,5.342,0,0,1,4.971-6h1.029a14.439,14.439,0,0,1,4.629.686L189.6.686a13.177,13.177,0,0,0-5.143-.514,10.738,10.738,0,0,0-11.657,9.6,10.738,10.738,0,0,0,9.6,11.657h1.543Zm13.2-7.714h12v6.857h5.143V0h-5.143V8.571h-12V0H192V20.571h5.143Zm31.714,7.714c6.686,0,12.171-3.6,12.171-10.8C241.029,3.6,235.886,0,228.857,0s-12.343,3.943-12.343,10.629C216.686,17.829,222.171,21.429,228.857,21.429Zm0-17.143c3.943,0,6.857,2.057,6.857,6.171,0,4.457-2.914,6.514-7.029,6.514s-6.857-2.057-6.857-6.343S224.914,4.286,228.857,4.286Zm25.371,17.143c6.686,0,12.171-3.6,12.171-10.8C266.4,3.6,261.257,0,254.229,0s-12.171,3.943-12.171,10.629C242.057,17.829,247.543,21.429,254.229,21.429Zm0-17.143c3.943,0,6.857,2.057,6.857,6.171,0,4.457-2.914,6.514-7.029,6.514s-6.857-2.057-6.857-6.343S250.286,4.286,254.229,4.286Zm35.486,11.143H272.571V0h-5.143V20.571h22.286ZM6.857,20.571H12V5.143h6.857V0H0V5.143H6.857Z" transform="translate(0 0)"/>
  <path id="Path_333" data-name="Path 333" d="M4,15H381.143v5.143H4Z" transform="translate(2.857 10.714)"/>
  <path id="Path_334" data-name="Path 334" d="M27,20H62.819c11.515,0,17.244,7.348,17.244,15.8,0,10.126-8.275,16.318-17.244,16.318H38.573V66.291H27ZM38.573,30.415V42.277H61.141c5.671,0,6.944-3.24,6.944-6.191,0-2.431-1.273-5.671-6.944-5.671Z" transform="translate(19.286 14.286)" fill="#e82e21"/>
  <path id="Path_335" data-name="Path 335" d="M86.095,57.438H69.14l-3.183,8.853H53.632L72.207,20h11.92l17.418,46.291H88.988ZM72.5,48.006h10.59L78.109,32.556Z" transform="translate(38.309 14.286)" fill="#e82e21"/>
  <path id="Path_336" data-name="Path 336" d="M82.694,20h21.931c10.359,0,15.509,7.348,15.509,15.8a15.945,15.945,0,0,1-8.1,14.408l8.1,16.086h-13.02L100.69,52.114H94.267V66.291H82.694ZM94.267,30.415V42.277h7.523a5.948,5.948,0,0,0,6.365-6.191c0-2.431-1.852-5.671-6.365-5.671Z" transform="translate(59.067 14.286)" fill="#e82e21"/>
  <path id="Path_337" data-name="Path 337" d="M106.086,34.5c0-9.779,7.812-15.044,17.88-15.044,5.844,0,12.267,1.5,15.914,3.587l-2.2,9.837a30.04,30.04,0,0,0-14.119-3.53c-3.588,0-6.019,1.389-6.019,3.819,0,7.522,23.726,3.3,23.726,18.864,0,8.274-5.9,15.565-18.228,15.565-5.266,0-11.227-.695-16.029-2.951l.463-10.589a36.142,36.142,0,0,0,15.914,3.645c5.091,0,6.365-1.794,6.365-3.935C129.753,46.829,106.086,50.88,106.086,34.5Z" transform="translate(75.776 13.9)" fill="#e82e21"/>
  <path id="Path_338" data-name="Path 338" d="M154.75,19.46c15.914,0,27.37,8.216,27.37,23.84,0,16.26-12.382,24.3-27.429,24.3-15.159,0-27.543-8.159-27.543-24.245C127.148,28.2,138.431,19.46,154.75,19.46Zm-.173,38.421c9.084,0,15.624-4.629,15.624-14.813,0-9.258-6.54-13.888-15.566-13.888s-15.567,4.514-15.567,14.235C139.067,53.194,145.607,57.881,154.577,57.881Z" transform="translate(90.82 13.9)" fill="#e82e21"/>
  <path id="Path_339" data-name="Path 339" d="M175.166,33.829h-2.892V66.291H160.7V20h16.262l30.61,29.22h2.894V20h11.573V66.291h-14Z" transform="translate(114.785 14.286)" fill="#e82e21"/>
  <path id="Path_340" data-name="Path 340" d="M198.943,34.5c0-9.779,9.259-15.044,21.643-15.044,7.869,0,16.029,1.5,19.673,3.587l-2.2,9.837c-3.878-2.314-11.69-3.53-17.882-3.53-6.653,0-9.778,1.389-9.778,3.819,0,7.985,31.248,1.794,31.248,18.864,0,8.274-7.061,15.565-21.989,15.565-6.713,0-14.988-.695-19.791-2.951l.463-10.589c4.8,2.315,11.8,3.645,19.675,3.645,7.581,0,10.126-1.794,10.126-3.935C230.133,46.309,198.943,52.269,198.943,34.5Z" transform="translate(142.102 13.9)" fill="#e82e21"/>
</svg>
